<svg width="62" height="12" fill="none" xmlns="http://www.w3.org/2000/svg"><path d="M2.67 10.758c-.434 0-.824-.108-1.172-.322a2.476 2.476 0 0 1-.85-.868A2.382 2.382 0 0 1 .332 8.35V4.547c0-.438.107-.836.322-1.195a2.41 2.41 0 0 1 .85-.868 2.183 2.183 0 0 1 1.166-.328 2.298 2.298 0 0 1 2.039 1.178c.21.36.316.764.316 1.213v.55c0 .032-.02.048-.058.048H3.619c-.031 0-.047-.016-.047-.047V4.64c0-.305-.086-.557-.258-.756a.816.816 0 0 0-.644-.3c-.23 0-.436.097-.615.288a.953.953 0 0 0-.27.674V8.35c0 .261.088.488.264.68a.825.825 0 0 0 .62.28.846.846 0 0 0 .645-.275.978.978 0 0 0 .258-.685v-.592h-.838c-.043 0-.064-.02-.064-.059V6.357c0-.039.021-.058.064-.058H4.98c.03 0 .046.02.046.058V8.35c0 .449-.105.855-.316 1.218a2.476 2.476 0 0 1-.85.868 2.236 2.236 0 0 1-1.19.322Zm7.13-.117H5.923c-.031 0-.047-.02-.047-.059l.012-8.244c0-.031.015-.047.047-.047H9.79c.031 0 .047.02.047.059v1.34c0 .032-.016.047-.047.047H7.33v1.875h2.46c.031 0 .047.016.047.047l.012 1.36c0 .03-.016.046-.047.046H7.328v2.098h2.473c.031 0 .047.02.047.059v1.37c0 .032-.016.048-.047.048Zm3.335.117c-.426 0-.819-.11-1.178-.328a2.558 2.558 0 0 1-.861-.873 2.347 2.347 0 0 1-.323-1.207l.012-3.803c0-.445.107-.846.322-1.201.211-.36.497-.647.856-.862a2.22 2.22 0 0 1 1.172-.328c.437 0 .83.108 1.178.323.351.214.632.503.843.867.215.36.322.76.322 1.2l.012 3.804c0 .437-.105.838-.316 1.2a2.49 2.49 0 0 1-.856.88 2.21 2.21 0 0 1-1.183.328Zm0-1.447a.834.834 0 0 0 .633-.293c.18-.2.27-.422.27-.668l-.013-3.803a.962.962 0 0 0-.252-.674.828.828 0 0 0-.638-.275.854.854 0 0 0-.633.27.932.932 0 0 0-.264.679V8.35c0 .261.088.488.264.68a.837.837 0 0 0 .633.28Zm4.681 1.33h-1.359c-.04 0-.059-.02-.059-.059l.012-8.244c0-.031.016-.047.047-.047h1.348c.03 0 .047.016.047.047l.011 8.244c0 .04-.015.059-.047.059Zm2.508 0h-1.348c-.038 0-.058-.02-.058-.059l.023-8.244c0-.031.016-.047.047-.047h2.309c.734 0 1.314.225 1.74.674.43.445.645 1.053.645 1.822 0 .563-.112 1.053-.334 1.47-.227.415-.52.735-.88.962-.359.226-.75.34-1.171.34h-.914v3.023c0 .04-.02.059-.059.059Zm.973-6.926-.914.012v2.378h.914c.254 0 .474-.12.662-.363.187-.246.281-.564.281-.955 0-.312-.084-.568-.252-.767-.168-.204-.398-.305-.691-.305Zm4.511 6.926h-1.347c-.04 0-.059-.02-.059-.059l.024-8.244c0-.031.015-.047.047-.047h3.843c.04 0 .059.016.059.047V3.69c0 .032-.016.047-.047.047h-2.46v1.864h2.46c.031 0 .047.02.047.058l.012 1.36c0 .03-.02.046-.059.046h-2.46v3.516c0 .04-.02.059-.06.059Zm2.76-.059 1.489-8.244c.007-.031.027-.047.058-.047h1.74c.032 0 .051.016.059.047l1.43 8.244c.004.04-.012.059-.047.059h-1.33c-.04 0-.06-.02-.065-.059l-.129-.879H30.14l-.13.88c-.003.038-.023.058-.058.058h-1.336c-.031 0-.047-.02-.047-.059Zm2.35-5.531-.54 3.369h1.155l-.492-3.37-.07-.445-.053.446Zm5.385 5.707c-.434 0-.83-.11-1.19-.328a2.445 2.445 0 0 1-.85-.88 2.494 2.494 0 0 1-.31-1.236l.012-3.744c0-.445.101-.847.304-1.207.204-.363.483-.654.838-.873.36-.222.758-.334 1.196-.334.445 0 .842.108 1.19.323.35.214.63.505.837.873.211.363.316.77.316 1.218v.551c0 .031-.015.047-.046.047h-1.348c-.031 0-.047-.016-.047-.047v-.55a.991.991 0 0 0-.258-.686.83.83 0 0 0-.644-.287c-.285 0-.504.097-.657.293a1.074 1.074 0 0 0-.228.68v3.743c0 .293.086.534.258.721.172.184.38.276.627.276a.81.81 0 0 0 .644-.305c.172-.207.258-.438.258-.692v-.556c0-.031.016-.047.047-.047h1.36c.03 0 .046.016.046.047v.556c0 .45-.105.86-.316 1.23a2.561 2.561 0 0 1-.85.886 2.204 2.204 0 0 1-1.19.328Zm5.789-.117h-1.354c-.035 0-.053-.02-.053-.059V3.738h-1.558c-.04 0-.059-.02-.059-.058l.012-1.342c0-.031.016-.047.047-.047h4.558c.043 0 .065.016.065.047V3.68c0 .039-.016.058-.047.058h-1.576l.012 6.844c0 .04-.016.059-.047.059Zm4.283.117c-.426 0-.818-.11-1.178-.328a2.508 2.508 0 0 1-.855-.873 2.38 2.38 0 0 1-.317-1.207v-.551c0-.043.02-.065.059-.065h1.348c.03 0 .046.022.046.065v.55a.97.97 0 0 0 .264.68.837.837 0 0 0 .633.282c.25 0 .463-.096.639-.288a.978.978 0 0 0 .263-.673c0-.293-.191-.55-.574-.768a4.572 4.572 0 0 0-.246-.14 9.617 9.617 0 0 0-.352-.2c-.136-.074-.27-.146-.398-.217a20.62 20.62 0 0 0-.375-.21c-.438-.258-.764-.58-.979-.967a2.717 2.717 0 0 1-.316-1.313c0-.445.11-.848.328-1.207a2.46 2.46 0 0 1 .856-.844c.355-.21.74-.316 1.154-.316.426 0 .816.105 1.172.316.355.215.639.5.85.856.214.355.322.754.322 1.195v.985c0 .03-.016.046-.047.046h-1.348c-.031 0-.047-.015-.047-.046l-.011-.985c0-.281-.088-.51-.264-.685a.856.856 0 0 0-.627-.264.837.837 0 0 0-.633.281.944.944 0 0 0-.264.668c0 .262.055.48.164.656.114.176.319.344.616.504l.217.117.375.211c.14.075.267.143.38.206l.206.105c.398.223.712.496.943.82.234.325.351.723.351 1.196 0 .457-.105.867-.316 1.23-.215.363-.5.65-.855.861-.356.211-.75.317-1.184.317Z" fill="#fff"/><mask id="a" style="mask-type:luminance" maskUnits="userSpaceOnUse" x="52" y="0" width="10" height="12"><path d="M61.998 0h-9.639v11.64h9.639V0Z" fill="#fff"/></mask><g mask="url(#a)" fill="#47AD6C"><path d="M53.21 10.456c-.06-.258-.352-.568-.622-.644l-.228-.07v-.844c0-.955-.03-.914.556-.756.99.264 1.752 1.049 1.957 2.016.106.515.17.48-.78.48h-.843l-.04-.182Z"/><path d="M56.73 10.277c-.234-2.144-1.886-3.79-4.013-4.007l-.358-.041V4.547h.229c.691 0 1.77.305 2.56.726.627.334 1.055.668 1.606 1.243.885.931 1.395 1.945 1.611 3.21.047.288.088.61.088.715v.2h-1.681l-.041-.364Z" fill-opacity=".5"/><path d="M60.27 10.234c0-.85-.334-2.144-.797-3.064-.739-1.477-2.028-2.795-3.475-3.557-1.014-.527-2.314-.884-3.234-.884h-.405V1l.663.041c4.664.275 8.66 4.272 8.935 8.941l.041.657H60.27v-.405Z" fill-opacity=".3"/></g></svg>