<svg width="62" height="12" fill="none" xmlns="http://www.w3.org/2000/svg"><path d="M2.672 10.756c-.434 0-.824-.107-1.172-.322a2.476 2.476 0 0 1-.85-.867 2.382 2.382 0 0 1-.316-1.219V4.545c0-.437.107-.836.322-1.195a2.41 2.41 0 0 1 .85-.867 2.183 2.183 0 0 1 1.166-.328A2.298 2.298 0 0 1 4.71 3.333c.21.359.316.763.316 1.212v.551c0 .031-.02.047-.058.047H3.62c-.031 0-.047-.016-.047-.047V4.64c0-.305-.086-.556-.258-.756a.816.816 0 0 0-.644-.299c-.23 0-.436.096-.615.288a.953.953 0 0 0-.27.673v3.803c0 .262.088.488.264.68a.825.825 0 0 0 .62.281.846.846 0 0 0 .645-.275.978.978 0 0 0 .258-.686v-.592h-.838c-.043 0-.064-.02-.064-.058V6.356c0-.04.021-.059.064-.059H4.98c.032 0 .047.02.047.059v1.992c0 .45-.105.856-.316 1.219a2.476 2.476 0 0 1-.85.867 2.236 2.236 0 0 1-1.19.322Zm7.13-.117H5.925c-.031 0-.047-.02-.047-.058l.012-8.245c0-.03.015-.046.047-.046H9.79c.031 0 .047.02.047.058V3.69c0 .031-.016.047-.047.047H7.33v1.875h2.46c.031 0 .047.015.047.047l.012 1.36c0 .03-.016.046-.047.046H7.33v2.098h2.473c.031 0 .047.02.047.058v1.371c0 .031-.016.047-.047.047Zm3.335.117a2.22 2.22 0 0 1-1.178-.328 2.557 2.557 0 0 1-.861-.873 2.347 2.347 0 0 1-.323-1.207l.012-3.803c0-.445.107-.845.322-1.2.211-.36.496-.647.856-.862.36-.219.75-.328 1.172-.328.437 0 .83.107 1.178.322.351.215.632.504.843.867.215.36.322.76.322 1.201l.012 3.803c0 .438-.105.838-.316 1.201-.215.367-.5.66-.856.88-.355.218-.75.327-1.183.327Zm0-1.447a.834.834 0 0 0 .633-.293c.18-.2.27-.422.27-.668l-.013-3.803a.962.962 0 0 0-.252-.673.828.828 0 0 0-.638-.276.854.854 0 0 0-.633.27.932.932 0 0 0-.264.68v3.802c0 .262.088.488.264.68a.837.837 0 0 0 .633.281Zm4.681 1.33H16.46c-.04 0-.059-.02-.059-.058l.012-8.245c0-.03.016-.046.047-.046h1.348c.03 0 .047.015.047.046l.011 8.245c0 .039-.015.058-.047.058Zm2.508 0h-1.348c-.039 0-.058-.02-.058-.058l.023-8.245c0-.03.016-.046.047-.046h2.31c.734 0 1.314.224 1.74.673.43.446.645 1.053.645 1.823 0 .562-.112 1.052-.334 1.47-.227.414-.52.735-.88.961a2.15 2.15 0 0 1-1.171.34h-.914v3.024c0 .039-.02.058-.059.058Zm.973-6.926-.914.012v2.379h.914c.254 0 .474-.121.662-.363.187-.246.281-.565.281-.955 0-.313-.084-.569-.252-.768-.168-.203-.398-.305-.691-.305Zm4.512 6.926h-1.348c-.04 0-.059-.02-.059-.058l.024-8.245c0-.03.015-.046.047-.046h3.843c.04 0 .059.015.059.046V3.69c0 .031-.016.047-.047.047h-2.46V5.6h2.46c.031 0 .047.02.047.059l.012 1.36c0 .03-.02.046-.059.046h-2.46v3.516c0 .039-.02.058-.06.058Zm2.76-.058 1.488-8.245c.007-.03.027-.046.058-.046h1.74c.032 0 .051.015.059.046l1.43 8.245c.004.039-.012.058-.047.058h-1.33c-.04 0-.06-.02-.065-.058l-.129-.88h-1.634l-.13.88c-.003.039-.023.058-.058.058h-1.336c-.031 0-.047-.02-.047-.058Zm2.349-5.532-.54 3.37h1.155l-.492-3.37-.07-.445-.053.445Zm5.385 5.707c-.434 0-.83-.109-1.19-.328a2.445 2.445 0 0 1-.85-.879 2.494 2.494 0 0 1-.31-1.236l.012-3.744a2.4 2.4 0 0 1 1.142-2.08c.36-.223.758-.334 1.196-.334.445 0 .842.107 1.19.322.35.215.63.506.837.873.211.363.316.77.316 1.219v.55c0 .032-.015.048-.046.048h-1.348c-.031 0-.047-.016-.047-.047v-.551a.991.991 0 0 0-.258-.686.83.83 0 0 0-.644-.287c-.285 0-.504.098-.657.293a1.074 1.074 0 0 0-.228.68v3.744c0 .293.086.533.258.72.172.184.38.276.627.276a.81.81 0 0 0 .644-.305c.172-.207.258-.437.258-.691v-.557c0-.03.016-.047.047-.047h1.36c.03 0 .046.016.046.047v.557c0 .45-.105.86-.316 1.23a2.561 2.561 0 0 1-.85.885 2.204 2.204 0 0 1-1.19.328Zm5.789-.117H40.74c-.035 0-.053-.02-.053-.058V3.737H39.13c-.04 0-.059-.02-.059-.059l.012-1.342c0-.03.016-.046.047-.046h4.559c.042 0 .064.015.064.046v1.342c0 .04-.016.059-.047.059H42.13l.012 6.844c0 .039-.016.058-.047.058Zm4.283.117c-.426 0-.818-.109-1.178-.328a2.508 2.508 0 0 1-.855-.873 2.38 2.38 0 0 1-.317-1.207v-.55c0-.044.02-.065.059-.065h1.348c.03 0 .047.021.047.064v.551c0 .262.087.488.263.68a.837.837 0 0 0 .633.281c.25 0 .463-.096.639-.287a.978.978 0 0 0 .263-.674c0-.293-.191-.549-.574-.767a4.572 4.572 0 0 0-.246-.141 9.617 9.617 0 0 0-.352-.2l-.398-.216a20.62 20.62 0 0 0-.375-.211c-.438-.258-.764-.58-.979-.967a2.717 2.717 0 0 1-.316-1.312c0-.446.11-.848.328-1.207.219-.356.504-.637.856-.844a2.22 2.22 0 0 1 1.154-.317c.426 0 .816.106 1.172.317.355.215.639.5.85.855.214.356.322.754.322 1.196v.984c0 .031-.016.047-.047.047h-1.348c-.031 0-.047-.016-.047-.047l-.011-.984c0-.282-.088-.51-.264-.686a.856.856 0 0 0-.627-.264.837.837 0 0 0-.633.282.944.944 0 0 0-.264.668c0 .261.055.48.165.656.113.176.318.344.615.504.031.015.103.055.217.117l.375.211c.14.074.267.143.38.205l.206.106c.398.222.712.496.943.82.234.324.351.722.351 1.195 0 .457-.105.867-.316 1.23a2.41 2.41 0 0 1-.855.862c-.356.21-.75.316-1.184.316Z" fill="#000"/><g clip-path="url(#a)" fill="#47AD6C"><path d="M53.211 10.457c-.058-.258-.351-.568-.62-.645l-.23-.07v-.844c0-.955-.029-.914.557-.755.99.263 1.752 1.048 1.957 2.015.106.516.17.48-.78.48h-.843l-.04-.181Z"/><path d="M56.732 10.275c-.234-2.144-1.886-3.79-4.013-4.007l-.358-.041V4.545h.229c.691 0 1.77.305 2.56.726.627.334 1.055.668 1.606 1.243.885.931 1.394 1.945 1.611 3.21.047.288.088.61.088.716v.199h-1.682l-.04-.364Z" fill-opacity=".5"/><path d="M60.272 10.234c0-.85-.334-2.144-.797-3.064-.739-1.477-2.028-2.795-3.475-3.557-1.014-.527-2.315-.884-3.234-.884h-.405V1l.662.041c4.664.275 8.66 4.272 8.936 8.941l.041.657h-1.728v-.405Z" fill-opacity=".3"/></g><defs><clipPath id="a"><path fill="#fff" transform="translate(52.361)" d="M0 0h9.639v11.639H0z"/></clipPath></defs></svg>