<svg width="94" height="82" fill="none" xmlns="http://www.w3.org/2000/svg"><path fill-rule="evenodd" clip-rule="evenodd" d="M66.53 51.938c8.2 0 14.845 6.644 14.845 14.843 0 8.2-6.645 14.844-14.844 14.844-7.75 0-14.113-5.94-14.781-13.52l-.066-.093a4.463 4.463 0 0 0-.778-.793C50.187 66.645 48.965 66 47 66s-3.188.644-3.906 1.219a4.466 4.466 0 0 0-.778.793c-.023.035-.047.066-.066.094-.672 7.578-7.031 13.52-14.781 13.52-8.2 0-14.844-6.645-14.844-14.845 0-8.199 6.645-14.844 14.844-14.844 7.297 0 13.355 5.262 14.602 12.2 1.195-.708 2.816-1.262 4.93-1.262 2.113 0 3.73.554 4.925 1.261 1.25-6.937 7.308-12.198 14.605-12.198Zm-39.06 3.124c-6.473 0-11.72 5.247-11.72 11.72 0 6.472 5.247 11.719 11.72 11.719 6.473 0 11.719-5.247 11.719-11.72 0-6.472-5.246-11.719-11.72-11.719Zm39.062 0c-6.473 0-11.72 5.247-11.72 11.72 0 6.472 5.247 11.719 11.72 11.719 6.473 0 11.719-5.247 11.719-11.72 0-6.472-5.246-11.719-11.72-11.719Z" fill="#fff"/><path d="M26.688 26.938a1.562 1.562 0 1 1 0 3.124 1.562 1.562 0 0 1 0-3.125Z" fill="#fff"/><path fill-rule="evenodd" clip-rule="evenodd" d="M60.719 2.068C64.273-1.28 70.023.595 71.05 5.435l6.535 30.879h10.039l.32.008a6.25 6.25 0 0 1 0 12.484l-.32.008H6.375l-.32-.008a6.25 6.25 0 0 1 0-12.484l.32-.008h10.039l6.535-30.88C23.976.596 29.726-1.28 33.281 2.069L44.886 12.99a3.064 3.064 0 0 0 3.992.195l.235-.195L60.719 2.068ZM6.375 39.438a3.124 3.124 0 1 0 0 6.25h81.25a3.124 3.124 0 1 0 0-6.25H6.375ZM67.992 6.085C67.468 3.61 64.75 2.787 63.023 4.2l-.16.144-11.61 10.922a6.194 6.194 0 0 1-8.276.204l-.23-.204-11.61-10.922c-1.652-1.558-4.41-.859-5.07 1.504l-.059.235-6.402 30.23h54.789l-1.324-6.25H31.376a1.562 1.562 0 1 1 0-3.125H72.41L67.99 6.084Z" fill="#fff"/></svg>