<svg width="78" height="72" fill="none" xmlns="http://www.w3.org/2000/svg"><path d="M30.668 65.168h-6.48a1.39 1.39 0 0 1-1.391-1.39V53.594c0-.766.621-1.39 1.39-1.39h6.481c.766 0 1.39.62 1.39 1.39v10.184a1.394 1.394 0 0 1-1.39 1.39Zm-5.094-2.777h3.703v-7.406h-3.703v7.406Z" fill="#fff"/><path d="M37.148 65.172h-6.48a1.39 1.39 0 0 1-1.39-1.391V48.039c0-.766.62-1.39 1.39-1.39h6.48c.766 0 1.391.62 1.391 1.39v15.742a1.394 1.394 0 0 1-1.39 1.39Zm-5.093-2.778h3.703V49.43h-3.703v12.965Z" fill="#fff"/><path d="M43.629 65.171h-6.48a1.39 1.39 0 0 1-1.391-1.39V44.336c0-.766.62-1.39 1.39-1.39h6.48c.767 0 1.392.62 1.392 1.39V63.78c0 .77-.622 1.39-1.391 1.39Zm-5.094-2.777h3.703V45.726h-3.703v16.668Z" fill="#fff"/><path d="M50.11 65.164h-6.481a1.39 1.39 0 0 1-1.39-1.39V36.922c0-.766.62-1.39 1.39-1.39h6.48c.766 0 1.391.62 1.391 1.39v26.852c0 .77-.621 1.39-1.39 1.39Zm-5.09-2.777h3.703V38.313H45.02v24.074Z" fill="#fff"/><path d="M56.594 65.168h-6.48a1.392 1.392 0 0 1-1.391-1.391V48.96c0-.766.62-1.39 1.39-1.39h6.48c.766 0 1.391.62 1.391 1.39v14.816a1.394 1.394 0 0 1-1.39 1.39ZM51.5 62.39h3.703V50.355H51.5V62.39Z" fill="#fff"/><path d="M60.296 65.172H20.48a1.391 1.391 0 0 1 0-2.781h39.816a1.391 1.391 0 0 1 0 2.78Zm15.739-48.149H1.96a1.391 1.391 0 0 1 0-2.78h74.074a1.391 1.391 0 0 1 0 2.78Z" fill="#fff"/><path d="M70.574 71.648H7.426a6.86 6.86 0 0 1-6.852-6.851v-9.848a1.391 1.391 0 0 1 2.781 0v9.848A4.08 4.08 0 0 0 7.43 68.87h63.148a4.08 4.08 0 0 0 4.074-4.074v-57.5a4.08 4.08 0 0 0-4.074-4.074H7.43a4.08 4.08 0 0 0-4.075 4.074V48.07a1.391 1.391 0 0 1-2.78 0V7.297A6.86 6.86 0 0 1 7.424.445h63.149a6.86 6.86 0 0 1 6.851 6.852v57.5a6.86 6.86 0 0 1-6.851 6.852Z" fill="#fff"/><path d="M67.703 13.313a4.172 4.172 0 0 1-4.168-4.168 4.174 4.174 0 0 1 4.168-4.168 4.172 4.172 0 0 1 4.168 4.168 4.174 4.174 0 0 1-4.168 4.168Zm0-5.559a1.391 1.391 0 1 0 .001 2.782 1.391 1.391 0 0 0 0-2.782Zm-9.258 5.559a4.172 4.172 0 0 1-4.168-4.168 4.174 4.174 0 0 1 4.168-4.168 4.172 4.172 0 0 1 4.168 4.168 4.177 4.177 0 0 1-4.168 4.168Zm0-5.559a1.391 1.391 0 1 0 1.39 1.39 1.396 1.396 0 0 0-1.39-1.39Zm-9.261 5.559a4.172 4.172 0 0 1-4.168-4.168 4.174 4.174 0 0 1 4.168-4.168 4.172 4.172 0 0 1 4.168 4.168 4.172 4.172 0 0 1-4.168 4.168Zm0-5.559a1.391 1.391 0 1 0 0 2.782 1.391 1.391 0 0 0 0-2.782Zm-31.481 9.27a1.39 1.39 0 0 1-1.39-1.39V1.741a1.391 1.391 0 0 1 2.78 0v13.891c0 .77-.624 1.39-1.39 1.39Zm50 54.62H10.297a1.39 1.39 0 0 1-1.39-1.39V24.883c0-.766.62-1.39 1.39-1.39h42.5a1.391 1.391 0 0 1 0 2.78h-41.11v42.594h54.63V26.273h-6.574a1.391 1.391 0 0 1 0-2.78h7.964c.766 0 1.391.62 1.391 1.39v45.37a1.395 1.395 0 0 1-1.395 1.391Z" fill="#fff"/><path d="M30.668 34.61H17.703a1.391 1.391 0 0 1 0-2.782h12.965a1.391 1.391 0 0 1 0 2.781Zm0 4.632H17.703a1.391 1.391 0 0 1 0-2.781h12.965a1.391 1.391 0 0 1 0 2.781Z" fill="#fff"/></svg>