<svg width="70" height="82" fill="none" xmlns="http://www.w3.org/2000/svg"><path d="M66.927 65.007c0-.839.686-1.521 1.535-1.521.846 0 1.535.679 1.535 1.521V75.26c0 1.855-.764 3.54-1.997 4.763l-.09.081A6.792 6.792 0 0 1 63.198 82h-56.4a6.81 6.81 0 0 1-4.803-1.98A6.698 6.698 0 0 1 0 75.256V6.74c0-1.852.764-3.536 1.994-4.756A6.806 6.806 0 0 1 6.797 0h56.4a6.79 6.79 0 0 1 4.796 1.98 6.682 6.682 0 0 1 2 4.76v43.262c0 .84-.685 1.522-1.534 1.522-.846 0-1.535-.68-1.535-1.522V6.74c0-1.016-.421-1.94-1.093-2.61a3.717 3.717 0 0 0-2.63-1.083H6.8c-1.028 0-1.96.415-2.638 1.084A3.671 3.671 0 0 0 3.07 6.747v68.516c0 1.02.418 1.94 1.093 2.61a3.731 3.731 0 0 0 2.635 1.083h56.4a3.74 3.74 0 0 0 2.57-1.019l.06-.064a3.667 3.667 0 0 0 1.094-2.61V65.011l.006-.004Zm-24.566.432c0-.84.686-1.522 1.535-1.522.846 0 1.535.68 1.535 1.522v.061c0 .84-.685 1.522-1.535 1.522-.846 0-1.535-.68-1.535-1.522v-.061Zm0-8.89c0-.84.686-1.523 1.535-1.523.846 0 1.535.68 1.535 1.522v.061c0 .84-.685 1.522-1.535 1.522a1.528 1.528 0 0 1-1.535-1.522v-.06Zm-1.49 5.995c-.846 0-1.534-.68-1.534-1.522 0-.839.685-1.522 1.534-1.522h6.05c.846 0 1.535.68 1.535 1.522 0 .84-.685 1.522-1.535 1.522h-6.05ZM24.575 58.02c0-.839.686-1.522 1.535-1.522.846 0 1.535.68 1.535 1.522v1.478h1.49c.846 0 1.535.68 1.535 1.522 0 .84-.686 1.522-1.535 1.522h-1.49v1.478c0 .839-.685 1.521-1.535 1.521a1.528 1.528 0 0 1-1.535-1.521v-1.48h-1.49c-.846 0-1.535-.68-1.535-1.522 0-.84.686-1.522 1.535-1.522h1.49v-1.478Zm2.285-17.994a1.542 1.542 0 0 1 2.165-.112c.63.56.679 1.525.113 2.147l-1.435 1.583 1.435 1.58a1.511 1.511 0 0 1-.113 2.147c-.63.56-1.6.513-2.165-.112l-1.22-1.346-1.219 1.346a1.542 1.542 0 0 1-2.165.112 1.512 1.512 0 0 1-.113-2.147l1.435-1.58-1.435-1.583a1.511 1.511 0 0 1 .113-2.147c.63-.56 1.6-.513 2.165.112l1.223 1.345 1.223-1.345h-.007Zm14.152 7.776c-.846 0-1.535-.68-1.535-1.522 0-.839.686-1.522 1.535-1.522h6.05c.846 0 1.535.68 1.535 1.522 0 .84-.686 1.522-1.535 1.522h-6.05Zm0-5.28a1.527 1.527 0 0 1-1.535-1.521c0-.84.686-1.522 1.535-1.522h6.05c.846 0 1.535.68 1.535 1.522 0 .84-.686 1.522-1.535 1.522h-6.05Zm14.059 10.556H36.538v18.379a20.144 20.144 0 0 0 12.696-5.785c3.306-3.275 5.464-7.685 5.834-12.59l.003-.004Zm-21.603 0H14.935c.37 4.909 2.532 9.319 5.834 12.593a20.15 20.15 0 0 0 12.699 5.785V53.077Zm-18.533-3.044h18.533v-18.38a20.141 20.141 0 0 0-12.633 5.718l-.066.068a19.829 19.829 0 0 0-5.833 12.59v.003Zm21.603 0H55.07a19.832 19.832 0 0 0-5.834-12.59 20.123 20.123 0 0 0-12.696-5.785v18.378l-.003-.003Zm-1.535-21.48h.045a23.23 23.23 0 0 1 16.35 6.74c4.19 4.151 6.787 9.886 6.8 16.221v.089c-.013 6.328-2.606 12.06-6.796 16.215a23.227 23.227 0 0 1-16.36 6.743h-.083a23.212 23.212 0 0 1-16.357-6.737c-4.193-4.158-6.787-9.896-6.8-16.224v-.082c.01-6.335 2.603-12.073 6.793-16.224l.085-.078a23.217 23.217 0 0 1 16.273-6.662h.05ZM11.256 17.811H58.75v-6.437H11.256v6.437Zm49.032 3.044H9.725c-.846 0-1.535-.68-1.535-1.522V9.852c0-.84.685-1.522 1.535-1.522h50.563c.846 0 1.535.68 1.535 1.522v9.481c0 .84-.685 1.522-1.535 1.522Zm6.643 33.826c0-.84.685-1.522 1.534-1.522.846 0 1.535.68 1.535 1.522v.489c0 .839-.685 1.522-1.535 1.522-.846 0-1.534-.68-1.534-1.522v-.49Zm0 5.163c0-.839.685-1.522 1.534-1.522.846 0 1.535.68 1.535 1.522v.49c0 .839-.685 1.521-1.535 1.521a1.527 1.527 0 0 1-1.534-1.521v-.49Z" fill="#fff"/></svg>