<svg width="48" height="48" fill="none" xmlns="http://www.w3.org/2000/svg"><g clip-path="url(#a)"><path d="M24 35.992c6.627 0 12-5.372 12-12 0-6.627-5.373-12-12-12s-12 5.373-12 12c0 6.628 5.373 12 12 12Z" fill="#fff"/><path d="M24.001 12h20.782a23.994 23.994 0 0 0-41.564.003L13.609 30l.01-.002A11.985 11.985 0 0 1 24 12Z" fill="url(#b)"/><path d="M24 33.5a9.5 9.5 0 1 0 0-19 9.5 9.5 0 0 0 0 19Z" fill="#1A73E8"/><path d="m34.391 30-10.39 17.997A23.994 23.994 0 0 0 44.78 12H23.999l-.003.01A11.984 11.984 0 0 1 34.391 30Z" fill="url(#c)"/><path d="M13.607 30.005 3.217 12.008A23.994 23.994 0 0 0 24 48.002l10.39-17.997-.006-.007a11.985 11.985 0 0 1-20.778.007Z" fill="url(#d)"/></g><defs><linearGradient id="b" x1="3.219" y1="15" x2="44.783" y2="15" gradientUnits="userSpaceOnUse"><stop stop-color="#D93025"/><stop offset="1" stop-color="#EA4335"/></linearGradient><linearGradient id="c" x1="20.722" y1="47.676" x2="41.504" y2="11.681" gradientUnits="userSpaceOnUse"><stop stop-color="#FCC934"/><stop offset="1" stop-color="#FBBC04"/></linearGradient><linearGradient id="d" x1="26.596" y1="46.503" x2="5.814" y2="10.508" gradientUnits="userSpaceOnUse"><stop stop-color="#1E8E3E"/><stop offset="1" stop-color="#34A853"/></linearGradient><clipPath id="a"><path fill="#fff" d="M0 0h48v48H0z"/></clipPath></defs></svg>