<svg width="76" height="55" fill="none" xmlns="http://www.w3.org/2000/svg"><path fill-rule="evenodd" clip-rule="evenodd" d="M53.032 7.461a3.255 3.255 0 0 1 4.602 0l17.36 17.36a3.255 3.255 0 0 1 0 4.603l-17.36 17.36a3.254 3.254 0 1 1-4.602-4.604l15.057-15.058-15.057-15.058a3.255 3.255 0 0 1 0-4.603Zm-30.116 0a3.255 3.255 0 0 0-4.603 0L.953 24.821a3.255 3.255 0 0 0 0 4.603l17.36 17.36a3.255 3.255 0 1 0 4.603-4.604L7.858 27.122l15.058-15.058a3.255 3.255 0 0 0 0-4.603ZM43.038.082a3.255 3.255 0 0 1 2.452 3.895l-10.85 47.74a3.254 3.254 0 1 1-6.347-1.444l10.85-47.739A3.254 3.254 0 0 1 43.038.082Z" fill="#fff"/></svg>