<svg width="69" height="69" fill="none" xmlns="http://www.w3.org/2000/svg"><path fill-rule="evenodd" clip-rule="evenodd" d="M23.589 0A4.364 4.364 0 0 0 19.3 3.633l-2.402 14.401H4.87a4.36 4.36 0 0 0-4.285 3.63l-.536 3.2c-.357 2.14 1.343 4.147 3.513 4.147h11.51l-1.7 10.194H4.869a4.36 4.36 0 0 0-4.285 3.629l-.536 3.2c-.357 2.141 1.343 4.148 3.513 4.148h7.985l-.481 2.879a1.568 1.568 0 0 0 3.093.514l.784-4.704a1.568 1.568 0 0 0-1.546-1.826H3.56c-.293 0-.468-.204-.42-.493l.536-3.2a1.192 1.192 0 0 1 1.192-1.011H14.7a1.568 1.568 0 0 0 1.547-1.311l2.22-13.33a1.57 1.57 0 0 0-1.546-1.825H3.56c-.293 0-.468-.205-.42-.493l.536-3.2a1.192 1.192 0 0 1 1.192-1.011h13.36a1.569 1.569 0 0 0 1.546-1.311l2.62-15.713a1.197 1.197 0 0 1 1.194-1.01h3.136c.291 0 .465.205.417.496l-2.62 15.712a1.568 1.568 0 0 0 1.548 1.826h14.343a1.568 1.568 0 0 0 0-3.137H27.92l2.315-13.887C30.592 2.008 28.896 0 26.725 0h-3.136Zm28.944 0a4.362 4.362 0 0 0-4.285 3.633l-2.402 14.401h-.728a1.568 1.568 0 1 0 0 3.137h2.058a1.569 1.569 0 0 0 1.546-1.311l2.62-15.713a1.19 1.19 0 0 1 1.19-1.01h3.137c.291 0 .468.208.42.496l-2.62 15.712a1.57 1.57 0 0 0 1.548 1.826h9.703c.292 0 .468.204.42.493l-.537 3.2a1.192 1.192 0 0 1-1.191 1.011h-9.703a1.569 1.569 0 0 0-1.547 1.31l-2.22 13.33a1.57 1.57 0 0 0 1.546 1.826H64.72c.292 0 .468.204.42.493l-.537 3.2a1.192 1.192 0 0 1-1.191 1.011H50.18a1.568 1.568 0 0 0-1.546 1.311l-2.748 16.497a1.197 1.197 0 0 1-1.194 1.01h-3.137c-.291 0-.465-.205-.416-.495l2.747-16.497a1.57 1.57 0 0 0-1.547-1.826H21.236a1.568 1.568 0 0 0-1.546 1.311l-2.75 16.497a1.192 1.192 0 0 1-1.192 1.01H12.61c-.291 0-.467-.208-.42-.495l.399-2.383a1.569 1.569 0 0 0-3.094-.515l-.398 2.383C8.741 66.994 10.44 69 12.611 69h3.137a4.362 4.362 0 0 0 4.285-3.632l2.533-15.186H40.49l-2.445 14.67c-.356 2.14 1.34 4.148 3.51 4.148h3.137a4.364 4.364 0 0 0 4.288-3.632l2.53-15.186h11.902a4.36 4.36 0 0 0 4.285-3.63l.536-3.2c.357-2.14-1.343-4.147-3.513-4.147H53.338l1.7-10.194h8.374a4.36 4.36 0 0 0 4.285-3.63l.536-3.2c.357-2.14-1.343-4.147-3.513-4.147h-7.853l2.315-13.887C59.54 2.006 57.84 0 55.67 0h-3.136ZM24.762 25.875a1.569 1.569 0 0 0-1.547 1.31l-2.22 13.33a1.568 1.568 0 0 0 1.546 1.826h21.106a1.568 1.568 0 0 0 1.547-1.311l2.22-13.33a1.568 1.568 0 0 0-1.546-1.825H24.762Zm1.329 3.136h17.927l-1.7 10.194H24.391l1.7-10.194Z" fill="#fff"/><path fill-rule="evenodd" clip-rule="evenodd" d="M13.41 58.03a1.568 1.568 0 1 1-3.137 0 1.568 1.568 0 0 1 3.137 0Z" fill="#fff"/></svg>