<svg width="72" height="73" fill="none" xmlns="http://www.w3.org/2000/svg"><path d="M71.25 30.987a1.87 1.87 0 0 0-1.325-1.023c-1.15-.708-3.118-1.757-6.499-3.556l-5.998-3.19v-9.077c.078-1.403-.413-2.822-1.44-3.832l-8.502-8.54A5.139 5.139 0 0 0 43.832.25H19.184a5.11 5.11 0 0 0-5.105 5.105V16.69c.052 2.53 3.784 2.508 3.83 0V5.355c0-.691.584-1.276 1.276-1.276h22.461v8.713c0 1.78 1.488 3.229 3.313 3.229h8.636v24.157l-14.65 9.773a5.76 5.76 0 0 1-6.379.003l-14.654-9.776V24.345c.013-1.4-1.585-2.374-2.819-1.666l-14.024 7.46c-.623.338-.994 1-1.026 1.699v35.098A6.07 6.07 0 0 0 6.107 73h40.779c2.513-.058 2.523-3.777 0-3.83H6.106a2.239 2.239 0 0 1-2.234-2.234V35.413L30.445 53.14a9.579 9.579 0 0 0 10.62-.004l26.57-17.722v31.522a2.239 2.239 0 0 1-2.234 2.235H54.54c-2.524.032-2.508 3.796 0 3.829H65.4a6.07 6.07 0 0 0 6.063-6.064V31.87c.033-.331.017-.587-.214-.883Zm-57.17 6.636-8.4-5.603 8.4-4.469v10.072ZM45.475 5.178l6.98 7.012h-6.98V5.178Zm11.948 22.377 8.4 4.465-8.4 5.603V27.555Z" fill="#fff"/><path d="M49.362 22.968a1.912 1.912 0 0 0-1.913-1.913H24.046a1.912 1.912 0 1 0 0 3.826h23.403a1.912 1.912 0 0 0 1.913-1.913ZM24.7 31.719c-2.514.042-2.52 3.787 0 3.829h13.47c2.513-.042 2.52-3.787 0-3.83H24.7ZM54.549 64.6h5.894c2.134 0 3.872-1.933 3.872-4.31v-5.135a1.912 1.912 0 1 0-3.826 0v5.135a.798.798 0 0 1-.14.484h-5.797c-2.514.039-2.52 3.787 0 3.829l-.003-.003Z" fill="#fff"/></svg>