<svg width="94" height="82" viewBox="0 0 94 82" fill="none" xmlns="http://www.w3.org/2000/svg">
<path fill-rule="evenodd" clip-rule="evenodd" d="M66.5309 51.9375C74.7301 51.9375 81.3749 58.582 81.3749 66.7815C81.3749 74.981 74.7304 81.6255 66.5309 81.6255C58.7809 81.6255 52.4179 75.6841 51.7499 68.1055C51.7304 68.0782 51.7069 68.043 51.6835 68.0118C51.5272 67.8047 51.2772 67.5157 50.9061 67.2188C50.1874 66.6446 48.9647 66 46.9999 66C45.0351 66 43.8124 66.6445 43.0937 67.2188C42.7227 67.5157 42.4727 67.8047 42.3164 68.0118C42.293 68.0469 42.2695 68.0782 42.25 68.1055C41.5781 75.6836 35.2188 81.6255 27.469 81.6255C19.2698 81.6255 12.625 74.981 12.625 66.7815C12.625 58.582 19.2695 51.9375 27.469 51.9375C34.7659 51.9375 40.824 57.1992 42.071 64.1365C43.2663 63.4295 44.8874 62.8748 47.0007 62.8748C49.114 62.8748 50.7312 63.4295 51.9265 64.1365C53.1765 57.199 59.2345 51.9375 66.5309 51.9375ZM27.4689 55.0625C20.9962 55.0625 15.7499 60.3086 15.7499 66.7815C15.7499 73.2544 20.996 78.5005 27.4689 78.5005C33.9418 78.5005 39.1879 73.2544 39.1879 66.7815C39.1879 60.3086 33.9418 55.0625 27.4689 55.0625ZM66.5309 55.0625C60.0582 55.0625 54.8119 60.3086 54.8119 66.7815C54.8119 73.2544 60.058 78.5005 66.5309 78.5005C73.0038 78.5005 78.2499 73.2544 78.2499 66.7815C78.2499 60.3086 73.0038 55.0625 66.5309 55.0625Z" fill="white"/>
<path d="M26.6875 26.9375C27.5508 26.9375 28.25 27.6367 28.25 28.5C28.25 29.3633 27.5508 30.0625 26.6875 30.0625C25.8242 30.0625 25.125 29.3633 25.125 28.5C25.125 27.6367 25.8242 26.9375 26.6875 26.9375Z" fill="white"/>
<path fill-rule="evenodd" clip-rule="evenodd" d="M60.7188 2.06771C64.2735 -1.27999 70.0235 0.595015 71.0508 5.43492L77.586 36.3139H87.625L87.9453 36.3217C91.25 36.4897 93.875 39.2201 93.875 42.5639C93.875 45.9077 91.25 48.6381 87.9453 48.8061L87.625 48.8139H6.37501L6.0547 48.8061C2.75 48.6382 0.125 45.9077 0.125 42.5639C0.125 39.2201 2.75 36.4897 6.0547 36.3217L6.37501 36.3139H16.414L22.9492 5.43492C23.9765 0.595115 29.7265 -1.27989 33.2812 2.06771L44.8862 12.9897C46.0073 14.0444 47.6909 14.1069 48.8784 13.185L49.1128 12.9897L60.7188 2.06771ZM6.37481 39.4387C4.64821 39.4387 3.24981 40.8371 3.24981 42.5637C3.24981 44.2903 4.64821 45.6887 6.37481 45.6887H87.6248C89.3514 45.6887 90.7498 44.2903 90.7498 42.5637C90.7498 40.8371 89.3514 39.4387 87.6248 39.4387H6.37481ZM67.9918 6.08371C67.4684 3.61101 64.7496 2.78681 63.023 4.20091L62.8628 4.34544L51.2538 15.2674C48.9296 17.451 45.375 17.5174 42.9766 15.4706L42.7461 15.2674L31.1371 4.34544C29.4848 2.78684 26.7269 3.48606 26.0668 5.84934L26.0082 6.08373L19.6059 36.3137H74.3949L73.0707 30.0637H31.3757C30.5124 30.0637 29.8132 29.3645 29.8132 28.5012C29.8132 27.6379 30.5124 26.9387 31.3757 26.9387H72.4107L67.9918 6.08371Z" fill="white"/>
</svg>
