<svg width="78" height="72" viewBox="0 0 78 72" fill="none" xmlns="http://www.w3.org/2000/svg">
<path d="M30.668 65.1683H24.1875C23.4219 65.1683 22.7969 64.5472 22.7969 63.7777V53.5937C22.7969 52.8281 23.418 52.2031 24.1875 52.2031H30.668C31.4336 52.2031 32.0586 52.8242 32.0586 53.5937V63.7777C32.0547 64.5473 31.4336 65.1683 30.668 65.1683ZM25.5742 62.391H29.2773V54.9848H25.5742V62.391Z" fill="white"/>
<path d="M37.1484 65.1716H30.6679C29.9023 65.1716 29.2773 64.5505 29.2773 63.781V48.039C29.2773 47.2734 29.8984 46.6484 30.6679 46.6484H37.1484C37.9141 46.6484 38.539 47.2695 38.539 48.039V63.781C38.5351 64.5506 37.914 65.1716 37.1484 65.1716ZM32.0546 62.3943H35.7577V49.4293H32.0546V62.3943Z" fill="white"/>
<path d="M43.6289 65.1715H37.1484C36.3828 65.1715 35.7578 64.5504 35.7578 63.7809V44.3359C35.7578 43.5703 36.3789 42.9453 37.1484 42.9453H43.6289C44.3945 42.9453 45.0195 43.5664 45.0195 44.3359V63.7809C45.0195 64.5504 44.3984 65.1715 43.6289 65.1715ZM38.5351 62.3942H42.2382V45.7262H38.5351V62.3942Z" fill="white"/>
<path d="M50.1094 65.1644H43.6289C42.8633 65.1644 42.2383 64.5434 42.2383 63.7738V36.9218C42.2383 36.1562 42.8594 35.5312 43.6289 35.5312H50.1094C50.875 35.5312 51.5 36.1523 51.5 36.9218V63.7738C51.5 64.5434 50.8789 65.1644 50.1094 65.1644ZM45.0196 62.3871H48.7227V38.3131H45.0196V62.3871Z" fill="white"/>
<path d="M56.5938 65.1675H50.1133C49.3476 65.1675 48.7227 64.5464 48.7227 63.7769V48.9609C48.7227 48.1953 49.3437 47.5703 50.1133 47.5703H56.5938C57.3594 47.5703 57.9844 48.1914 57.9844 48.9609V63.7769C57.9804 64.5464 57.3594 65.1675 56.5938 65.1675ZM51.5 62.3902H55.2031V50.3552H51.5V62.3902Z" fill="white"/>
<path d="M60.2964 65.1718H20.4804C19.7148 65.1718 19.0898 64.5507 19.0898 63.7812C19.0898 63.0156 19.7109 62.3906 20.4804 62.3906H60.2964C61.0621 62.3906 61.687 63.0117 61.687 63.7812C61.6831 64.5507 61.062 65.1718 60.2964 65.1718Z" fill="white"/>
<path d="M76.0349 17.0234H1.96091C1.19528 17.0234 0.570312 16.4023 0.570312 15.6328C0.570312 14.8672 1.1914 14.2422 1.96091 14.2422H76.0349C76.8005 14.2422 77.4255 14.8633 77.4255 15.6328C77.4255 16.4023 76.8044 17.0234 76.0349 17.0234Z" fill="white"/>
<path d="M70.5738 71.6485H7.42582C3.64852 71.6485 0.574219 68.5743 0.574219 64.7969V54.9492C0.574219 54.1836 1.19531 53.5586 1.96482 53.5586C2.73044 53.5586 3.35542 54.1797 3.35542 54.9492V64.7969C3.35542 67.043 5.18352 68.8711 7.42962 68.8711H70.5776C72.8237 68.8711 74.6518 67.043 74.6518 64.7969V7.29691C74.6518 5.05081 72.8237 3.22271 70.5776 3.22271H7.42962C5.18352 3.22271 3.35542 5.05081 3.35542 7.29691V48.0699C3.35542 48.8355 2.73433 49.4605 1.96482 49.4605C1.1992 49.4605 0.574219 48.8394 0.574219 48.0699V7.29691C0.574219 3.51961 3.64842 0.445312 7.42582 0.445312H70.5738C74.3511 0.445312 77.4254 3.51951 77.4254 7.29691V64.7969C77.4254 68.5742 74.3512 71.6485 70.5738 71.6485Z" fill="white"/>
<path d="M67.7032 13.3126C65.4063 13.3126 63.5352 11.4454 63.5352 9.14456C63.5352 6.84766 65.4063 4.97656 67.7032 4.97656C70.0001 4.97656 71.8712 6.84376 71.8712 9.14456C71.8712 11.4415 70.0001 13.3126 67.7032 13.3126ZM67.7032 7.75396C66.9375 7.75396 66.3126 8.37505 66.3126 9.14456C66.3126 9.91018 66.9336 10.5352 67.7032 10.5352C68.4688 10.5352 69.0938 9.91407 69.0938 9.14456C69.0938 8.37893 68.4688 7.75396 67.7032 7.75396Z" fill="white"/>
<path d="M58.4453 13.3126C56.1484 13.3126 54.2773 11.4454 54.2773 9.14456C54.2773 6.84766 56.1484 4.97656 58.4453 4.97656C60.7422 4.97656 62.6133 6.84376 62.6133 9.14456C62.6094 11.4415 60.7422 13.3126 58.4453 13.3126ZM58.4453 7.75396C57.6797 7.75396 57.0547 8.37505 57.0547 9.14456C57.0547 9.91018 57.6758 10.5352 58.4453 10.5352C59.211 10.5352 59.8359 9.91407 59.8359 9.14456C59.832 8.37893 59.2109 7.75396 58.4453 7.75396Z" fill="white"/>
<path d="M49.1836 13.3126C46.8867 13.3126 45.0156 11.4454 45.0156 9.14456C45.0156 6.84766 46.8867 4.97656 49.1836 4.97656C51.4805 4.97656 53.3516 6.84376 53.3516 9.14456C53.3516 11.4415 51.4844 13.3126 49.1836 13.3126ZM49.1836 7.75396C48.418 7.75396 47.793 8.37505 47.793 9.14456C47.793 9.91018 48.4141 10.5352 49.1836 10.5352C49.9492 10.5352 50.5742 9.91407 50.5742 9.14456C50.5742 8.37893 49.9492 7.75396 49.1836 7.75396Z" fill="white"/>
<path d="M17.7031 17.0238C16.9375 17.0238 16.3125 16.4027 16.3125 15.6332V1.74216C16.3125 0.976543 16.9336 0.351562 17.7031 0.351562C18.4687 0.351562 19.0937 0.972653 19.0937 1.74216V15.6332C19.0937 16.4027 18.4687 17.0238 17.7031 17.0238Z" fill="white"/>
<path d="M67.7029 71.6444H10.2969C9.53123 71.6444 8.90625 71.0233 8.90625 70.2538V24.8828C8.90625 24.1172 9.52734 23.4922 10.2969 23.4922H52.7969C53.5625 23.4922 54.1874 24.1133 54.1874 24.8828C54.1874 25.6484 53.5664 26.2734 52.7969 26.2734H11.6878V68.8674H66.3168V26.2734H59.7426C58.977 26.2734 58.3521 25.6523 58.3521 24.8828C58.3521 24.1172 58.9731 23.4922 59.7426 23.4922H67.7075C68.4731 23.4922 69.098 24.1133 69.098 24.8828V70.2538C69.0941 71.0233 68.4724 71.6444 67.7029 71.6444Z" fill="white"/>
<path d="M30.6681 34.6093H17.7031C16.9375 34.6093 16.3125 33.9882 16.3125 33.2187C16.3125 32.4531 16.9336 31.8281 17.7031 31.8281H30.6681C31.4337 31.8281 32.0587 32.4492 32.0587 33.2187C32.0548 33.9883 31.4337 34.6093 30.6681 34.6093Z" fill="white"/>
<path d="M30.6681 39.2421H17.7031C16.9375 39.2421 16.3125 38.621 16.3125 37.8515C16.3125 37.0859 16.9336 36.4609 17.7031 36.4609H30.6681C31.4337 36.4609 32.0587 37.082 32.0587 37.8515C32.0548 38.6211 31.4337 39.2421 30.6681 39.2421Z" fill="white"/>
</svg>
