<svg width="70" height="82" viewBox="0 0 70 82" fill="none" xmlns="http://www.w3.org/2000/svg">
<path d="M66.9275 65.0075C66.9275 64.1684 67.6126 63.4856 68.4622 63.4856C69.3084 63.4856 69.9969 64.165 69.9969 65.0075V75.26C69.9969 77.1149 69.233 78.7998 67.9998 80.0229L67.9107 80.1044C66.6843 81.2798 65.0228 82 63.1969 82H6.7966C4.92617 82 3.22702 81.2424 1.99373 80.0195C0.763937 78.8 0 77.1115 0 75.2567V6.73992C0 4.88849 0.763928 3.20351 1.99373 1.98389C3.23044 0.75748 4.92959 0 6.7966 0H63.1969C65.064 0 66.7631 0.757559 67.993 1.98049C69.2262 3.20003 69.9935 4.88501 69.9935 6.73992V50.0024C69.9935 50.8415 69.3084 51.5243 68.4588 51.5243C67.6127 51.5243 66.9241 50.8449 66.9241 50.0024V6.73992C66.9241 5.72415 66.5027 4.80013 65.8313 4.13092C65.1599 3.46169 64.2281 3.04723 63.2004 3.04723H6.80002C5.77228 3.04723 4.84049 3.46168 4.16224 4.13092C3.48737 4.80016 3.06943 5.72415 3.06943 6.74671V75.2635C3.06943 76.2826 3.48736 77.2033 4.16224 77.8725C4.8371 78.5417 5.76886 78.9562 6.7966 78.9562H63.1969C64.1904 78.9562 65.1017 78.5655 65.7662 77.937L65.8279 77.8725C66.5028 77.2032 66.9207 76.2792 66.9207 75.2634V65.0109L66.9275 65.0075ZM42.3615 65.439C42.3615 64.5999 43.0467 63.917 43.8962 63.917C44.7424 63.917 45.431 64.5965 45.431 65.439V65.5001C45.431 66.3392 44.7458 67.022 43.8962 67.022C43.0501 67.022 42.3615 66.3426 42.3615 65.5001V65.439ZM42.3615 56.5483C42.3615 55.7093 43.0467 55.0264 43.8962 55.0264C44.7424 55.0264 45.431 55.7059 45.431 56.5483V56.6095C45.431 57.4486 44.7458 58.1314 43.8962 58.1314C43.0501 58.1314 42.3615 57.452 42.3615 56.6095V56.5483ZM40.8714 62.5443C40.0252 62.5443 39.3367 61.8648 39.3367 61.0224C39.3367 60.1833 40.0218 59.5004 40.8714 59.5004H46.9211C47.7673 59.5004 48.4558 60.1799 48.4558 61.0224C48.4558 61.8614 47.7707 62.5443 46.9211 62.5443H40.8714ZM24.5753 58.0193C24.5753 57.1802 25.2605 56.4974 26.11 56.4974C26.9562 56.4974 27.6447 57.1768 27.6447 58.0193V59.497H29.1349C29.9811 59.497 30.6696 60.1765 30.6696 61.019C30.6696 61.8581 29.9845 62.5409 29.1349 62.5409H27.6447V64.0186C27.6447 64.8577 26.9596 65.5405 26.11 65.5405C25.2639 65.5405 24.5753 64.8611 24.5753 64.0186V62.5409H23.0852C22.239 62.5409 21.5504 61.8615 21.5504 61.019C21.5504 60.1799 22.2356 59.497 23.0852 59.497H24.5753V58.0193ZM26.8603 40.025C27.4255 39.3999 28.3984 39.3524 29.0254 39.9129C29.6557 40.4734 29.7037 41.4382 29.1384 42.0599L27.7031 43.643L29.1384 45.2227C29.7037 45.8477 29.6557 46.8091 29.0254 47.3697C28.395 47.9302 27.4256 47.8827 26.8603 47.2576L25.6408 45.9123L24.4212 47.2576C23.856 47.8827 22.8831 47.9302 22.2561 47.3697C21.6258 46.8092 21.5779 45.8444 22.1431 45.2227L23.5784 43.643L22.1431 42.0599C21.5779 41.4349 21.6258 40.4735 22.2561 39.9129C22.8865 39.3524 23.8559 39.3999 24.4212 40.025L25.6442 41.3703L26.8671 40.025H26.8603ZM41.0121 47.8011C40.166 47.8011 39.4774 47.1216 39.4774 46.2791C39.4774 45.44 40.1625 44.7572 41.0121 44.7572H47.0619C47.908 44.7572 48.5966 45.4366 48.5966 46.2791C48.5966 47.1182 47.9115 47.8011 47.0619 47.8011H41.0121ZM41.0121 42.5219C40.166 42.5219 39.4774 41.8425 39.4774 41C39.4774 40.1609 40.1625 39.4781 41.0121 39.4781H47.0619C47.908 39.4781 48.5966 40.1575 48.5966 41C48.5966 41.8391 47.9115 42.5219 47.0619 42.5219H41.0121ZM55.071 53.0771H36.5378V71.4557C41.4845 71.0855 45.9346 68.9419 49.2338 65.6705C52.5396 62.3956 54.6978 57.9862 55.0677 53.0803L55.071 53.0771ZM33.4683 53.0771H14.9351C15.3051 57.9859 17.4667 62.3956 20.769 65.6698C24.0748 68.9447 28.5214 71.0849 33.4677 71.4551L33.4683 53.0771ZM14.9351 50.0332H33.4683V31.6545C28.5524 32.0214 24.1329 34.1345 20.8346 37.3719L20.7695 37.4399C17.4671 40.7147 15.3089 45.1275 14.9355 50.03L14.9351 50.0332ZM36.5378 50.0332H55.071C54.6976 45.1278 52.536 40.7147 49.2371 37.4431C45.9347 34.1648 41.4847 32.028 36.541 31.6578V50.0364L36.5378 50.0332ZM35.0031 28.5533H35.0476C41.4262 28.5669 47.2087 31.1386 51.3989 35.2932C55.5885 39.4445 58.1852 45.1787 58.1989 51.5143V51.6026C58.1852 57.9314 55.5919 63.6623 51.4023 67.8176C47.2127 71.9756 41.4267 74.5473 35.0414 74.5609H34.9591C28.5737 74.5507 22.791 71.979 18.6017 67.8243C14.4087 63.6663 11.8154 57.9284 11.8017 51.5998V51.5183C11.812 45.1826 14.4053 39.4447 18.5949 35.2938L18.6805 35.2156C22.8598 31.1084 28.6079 28.5675 34.9529 28.5538L35.0031 28.5533ZM11.2562 17.8112H58.7499V11.3736H11.2562V17.8112ZM60.2881 20.855H9.72497C8.87883 20.855 8.19026 20.1756 8.19026 19.3331V9.85198C8.19026 9.01289 8.8754 8.33006 9.72497 8.33006H60.2881C61.1343 8.33006 61.8229 9.00949 61.8229 9.85198V19.3331C61.8229 20.1722 61.1377 20.855 60.2881 20.855ZM66.9306 54.6807C66.9306 53.8416 67.6157 53.1588 68.4653 53.1588C69.3114 53.1588 70 53.8382 70 54.6807V55.1699C70 56.009 69.3149 56.6918 68.4653 56.6918C67.6191 56.6918 66.9306 56.0124 66.9306 55.1699V54.6807ZM66.9306 59.8444C66.9306 59.0053 67.6157 58.3225 68.4653 58.3225C69.3114 58.3225 70 59.0019 70 59.8444V60.3336C70 61.1727 69.3149 61.8555 68.4653 61.8555C67.6191 61.8555 66.9306 61.1761 66.9306 60.3336V59.8444Z" fill="white"/>
</svg>
