<svg width="76" height="55" viewBox="0 0 76 55" fill="none" xmlns="http://www.w3.org/2000/svg">
<path fill-rule="evenodd" clip-rule="evenodd" d="M53.0315 7.46115C54.3027 6.19003 56.3632 6.19003 57.6344 7.46115L74.994 24.8207C76.2652 26.0919 76.2652 28.1529 74.994 29.4241L57.6344 46.7837C56.3632 48.0549 54.3027 48.0549 53.0315 46.7837C51.7603 45.5126 51.7603 43.4515 53.0315 42.1804L68.0892 27.1222L53.0315 12.0643C51.7603 10.7932 51.7603 8.73231 53.0315 7.46115Z" fill="white"/>
<path fill-rule="evenodd" clip-rule="evenodd" d="M22.9161 7.46115C21.645 6.19003 19.5841 6.19003 18.313 7.46115L0.953337 24.8207C-0.317779 26.0919 -0.317779 28.1529 0.953337 29.4241L18.313 46.7837C19.5841 48.0549 21.645 48.0549 22.9161 46.7837C24.1873 45.5126 24.1873 43.4515 22.9161 42.1804L7.85809 27.1222L22.9161 12.0643C24.1873 10.7932 24.1873 8.73231 22.9161 7.46115Z" fill="white"/>
<path fill-rule="evenodd" clip-rule="evenodd" d="M43.0376 0.0816547C44.7905 0.480058 45.8885 2.22405 45.4901 3.97703L34.6404 51.7162C34.2424 53.4691 32.4982 54.5671 30.7453 54.1687C28.9923 53.7703 27.8942 52.0261 28.2926 50.2732L39.1426 2.53431C39.5405 0.781334 41.2848 -0.316749 43.0376 0.0816547Z" fill="white"/>
</svg>
