<svg width="69" height="69" viewBox="0 0 69 69" fill="none" xmlns="http://www.w3.org/2000/svg">
<path fill-rule="evenodd" clip-rule="evenodd" d="M23.5887 0C21.4744 0 19.6483 1.54654 19.3007 3.63255L16.8994 18.0341H4.86851C2.75532 18.0341 0.931237 19.5792 0.583572 21.6636L0.047572 24.8643C-0.309472 27.0048 1.39055 29.0114 3.56067 29.0114H15.0709L13.371 39.2045H4.86851C2.75532 39.2045 0.931237 40.7496 0.583572 42.834L0.047572 46.0347C-0.309472 48.1753 1.39055 50.1818 3.56067 50.1818H11.5455L11.0647 53.0609C10.9965 53.4711 11.094 53.8916 11.3358 54.2299C11.5776 54.5682 11.9439 54.7966 12.3541 54.8649C12.7643 54.9331 13.1849 54.8356 13.5232 54.5938C13.8615 54.352 14.0899 53.9857 14.1581 53.5755L14.9422 48.8709C14.9796 48.6463 14.9675 48.4163 14.907 48.1968C14.8465 47.9773 14.7388 47.7736 14.5916 47.5999C14.4444 47.4262 14.2612 47.2866 14.0547 47.1909C13.8481 47.0951 13.6232 47.0455 13.3955 47.0455H3.56067C3.26817 47.0455 3.09294 46.8408 3.14106 46.5523L3.67705 43.3517C3.77604 42.7582 4.26684 42.3409 4.86851 42.3409H14.7003C15.0715 42.3408 15.4308 42.2091 15.714 41.969C15.9972 41.729 16.1861 41.3962 16.247 41.03L18.4676 27.7005C18.5049 27.4759 18.4929 27.2458 18.4324 27.0263C18.3718 26.8069 18.2642 26.6032 18.117 26.4295C17.9698 26.2558 17.7866 26.1162 17.58 26.0204C17.3735 25.9247 17.1485 25.8751 16.9208 25.875H3.56067C3.26817 25.875 3.09294 25.6704 3.14106 25.3819L3.67705 22.1812C3.77601 21.5877 4.26684 21.1705 4.86851 21.1705H18.2287C18.5999 21.1704 18.9592 21.0386 19.2424 20.7986C19.5256 20.5585 19.7145 20.2258 19.7754 19.8596L22.3942 4.14711C22.4928 3.55526 22.9882 3.13636 23.5887 3.13636H26.725C27.0165 3.13636 27.19 3.34223 27.1416 3.63255L24.5228 19.345C24.4855 19.5696 24.4975 19.7996 24.5581 20.0191C24.6186 20.2386 24.7263 20.4423 24.8734 20.616C25.0206 20.7897 25.2038 20.9293 25.4104 21.025C25.617 21.1208 25.8419 21.1704 26.0696 21.1705H40.4129C40.8288 21.1705 41.2277 21.0052 41.5218 20.7111C41.8159 20.417 41.9811 20.0182 41.9811 19.6023C41.9811 19.1864 41.8159 18.7875 41.5218 18.4934C41.2277 18.1993 40.8288 18.0341 40.4129 18.0341H27.9196L30.2351 4.14711C30.5916 2.00822 28.8963 0 26.725 0H23.5887ZM52.5327 0C50.4184 0 48.595 1.54882 48.2477 3.63255L45.8464 18.0341H45.1175C44.7016 18.0341 44.3027 18.1993 44.0086 18.4934C43.7145 18.7875 43.5493 19.1864 43.5493 19.6023C43.5493 20.0182 43.7145 20.417 44.0086 20.7111C44.3027 21.0052 44.7016 21.1705 45.1175 21.1705H47.1757C47.547 21.1704 47.9062 21.0386 48.1894 20.7986C48.4727 20.5585 48.6615 20.2258 48.7225 19.8596L51.3412 4.14711C51.4402 3.55297 51.9321 3.13636 52.5327 3.13636H55.669C55.9604 3.13636 56.1366 3.34475 56.0886 3.63255L53.4699 19.345C53.4326 19.5696 53.4446 19.7996 53.5051 20.0191C53.5656 20.2386 53.6733 20.4423 53.8205 20.616C53.9677 20.7897 54.1509 20.9293 54.3574 21.025C54.564 21.1208 54.7889 21.1704 55.0166 21.1705H64.7198C65.0123 21.1705 65.1875 21.3751 65.1394 21.6636L64.6034 24.8643C64.5044 25.4577 64.0136 25.875 63.4119 25.875H53.7088C53.3375 25.8751 52.9783 26.0069 52.6951 26.2469C52.4119 26.4869 52.223 26.8197 52.162 27.1859L49.9415 40.5154C49.9042 40.74 49.9162 40.9701 49.9767 41.1896C50.0372 41.409 50.1449 41.6127 50.2921 41.7864C50.4393 41.9601 50.6225 42.0997 50.829 42.1955C51.0356 42.2912 51.2605 42.3409 51.4882 42.3409H64.7198C65.0123 42.3409 65.1875 42.5455 65.1394 42.834L64.6034 46.0347C64.5044 46.6282 64.0136 47.0455 63.4119 47.0455H50.1804C49.8091 47.0455 49.4499 47.1773 49.1667 47.4174C48.8834 47.6574 48.6946 47.9901 48.6336 48.3564L45.8863 64.8529C45.7876 65.4447 45.2922 65.8636 44.6917 65.8636H41.5554C41.2639 65.8636 41.0905 65.6578 41.1388 65.3675L43.8862 48.8709C43.9235 48.6463 43.9115 48.4163 43.851 48.1968C43.7905 47.9773 43.6828 47.7736 43.5356 47.5999C43.3884 47.4262 43.2052 47.2866 42.9987 47.1909C42.7921 47.0951 42.5672 47.0455 42.3395 47.0455H21.2364C20.8651 47.0455 20.5059 47.1773 20.2227 47.4174C19.9395 47.6574 19.7506 47.9901 19.6897 48.3564L16.9392 64.8529C16.8402 65.447 16.3483 65.8636 15.7478 65.8636H12.6114C12.32 65.8636 12.1438 65.6552 12.1918 65.3675L12.59 62.9846C12.6581 62.5743 12.5606 62.1539 12.3188 61.8155C12.077 61.4772 11.7107 61.2488 11.3005 61.1805C10.8903 61.1124 10.4698 61.2099 10.1314 61.4517C9.79314 61.6935 9.56476 62.0598 9.49648 62.47L9.09831 64.8529C8.74141 66.9943 10.4401 69 12.6114 69H15.7478C17.862 69 19.6854 67.4512 20.0327 65.3675L22.5657 50.1818H40.4895L38.0454 64.8529C37.6889 66.9918 39.3841 69 41.5554 69H44.6917C46.806 69 48.6321 67.4535 48.9797 65.3675L51.5097 50.1818H63.4119C65.5251 50.1818 67.3492 48.6367 67.6968 46.5523L68.2328 43.3517C68.5899 41.2111 66.8899 39.2045 64.7198 39.2045H53.3382L55.0381 29.0114H63.4119C65.5251 29.0114 67.3492 27.4663 67.6968 25.3819L68.2328 22.1812C68.5899 20.0407 66.8899 18.0341 64.7198 18.0341H56.8666L59.1821 4.14711C59.539 2.00569 57.8403 0 55.669 0H52.5327ZM24.7617 25.875C24.3905 25.8751 24.0313 26.0069 23.748 26.2469C23.4648 26.4869 23.2759 26.8197 23.215 27.1859L20.9944 40.5154C20.9571 40.74 20.9691 40.9701 21.0297 41.1896C21.0902 41.409 21.1979 41.6127 21.345 41.7864C21.4922 41.9601 21.6754 42.0997 21.882 42.1955C22.0886 42.2912 22.3135 42.3409 22.5412 42.3409H43.6473C44.0186 42.3408 44.3778 42.2091 44.661 41.969C44.9442 41.729 45.1331 41.3962 45.1941 41.03L47.4146 27.7005C47.452 27.4759 47.4399 27.2458 47.3794 27.0263C47.3189 26.8069 47.2112 26.6032 47.064 26.4295C46.9168 26.2558 46.7336 26.1162 46.5271 26.0204C46.3205 25.9247 46.0956 25.8751 45.8679 25.875H24.7617ZM26.091 29.0114H44.0179L42.318 39.2045H24.3911L26.091 29.0114Z" fill="white"/>
<path fill-rule="evenodd" clip-rule="evenodd" d="M13.4098 58.0291C13.4098 58.8952 12.7077 59.5973 11.8416 59.5973C10.9755 59.5973 10.2734 58.8952 10.2734 58.0291C10.2734 57.163 10.9755 56.4609 11.8416 56.4609C12.7077 56.4609 13.4098 57.163 13.4098 58.0291Z" fill="white"/>
</svg>
