<svg width="72" height="73" viewBox="0 0 72 73" fill="none" xmlns="http://www.w3.org/2000/svg">
<path d="M71.2502 30.9872C71.0033 30.4709 70.4967 30.0649 69.925 29.9642C68.7753 29.2562 66.8072 28.2071 63.4263 26.4079L57.4277 23.2186V14.1411C57.5056 12.7381 57.0152 11.3188 55.9889 10.3087L47.4859 1.76993C46.5408 0.805311 45.2092 0.25 43.8321 0.25H19.1845C16.3687 0.25 14.079 2.53967 14.079 5.35547V16.6903C14.1309 19.2204 17.8626 19.1976 17.9081 16.6903V5.35547C17.9081 4.6637 18.4927 4.07906 19.1845 4.07906H41.6464V12.7924C41.6464 14.5722 43.1339 16.0207 44.9592 16.0207H53.5952V40.1779L38.9446 49.9505C37.0057 51.2366 34.5016 51.2366 32.566 49.9537L17.912 40.1778V24.3449C17.925 22.9451 16.3272 21.9707 15.093 22.6788L1.06928 30.1389C0.445713 30.4767 0.0754776 31.1392 0.0429688 31.8376V66.9363C0.0429688 70.2782 2.76132 72.9999 6.10658 72.9999H46.8857C49.3994 72.9415 49.4092 69.2227 46.8857 69.1708H6.10658C4.87565 69.1708 3.87211 68.1672 3.87211 66.9363V35.4135L30.4454 53.1396C33.6704 55.2799 37.8373 55.2799 41.0652 53.1363L67.6352 35.4136V66.9364C67.6352 68.1673 66.6317 69.1709 65.4007 69.1709H54.5406C52.0171 69.2033 52.0334 72.9675 54.5406 73H65.4007C68.7427 73 71.4643 70.2816 71.4643 66.9364V31.8701C71.4968 31.5388 71.4808 31.2828 71.2502 30.9872ZM14.0795 37.6225L5.68039 32.02L14.0795 27.5511V37.6225ZM45.4759 5.17763L52.4553 12.1896H45.4759V5.17763ZM57.4243 27.5547C60.2499 29.0584 63.5399 30.8057 65.8234 32.0204L57.4243 37.6228V27.5547Z" fill="white"/>
<path d="M49.3618 22.9676C49.3618 21.9089 48.5044 21.0547 47.4488 21.0547H24.0458C22.987 21.0547 22.1328 21.9121 22.1328 22.9676C22.1328 24.0264 22.9902 24.8806 24.0458 24.8806H47.4488C48.5076 24.8806 49.3618 24.0232 49.3618 22.9676Z" fill="white"/>
<path d="M24.7002 31.7188C22.1865 31.761 22.18 35.5057 24.7002 35.5479H38.1685C40.6823 35.5057 40.6888 31.761 38.1685 31.7188H24.7002Z" fill="white"/>
<path d="M54.5487 64.5997H60.4434C62.5771 64.5997 64.3147 62.6673 64.3147 60.2899V55.1551C64.3147 54.0964 63.4573 53.2422 62.4017 53.2422C61.343 53.2422 60.4888 54.0996 60.4888 55.1551V60.2899C60.4888 60.5464 60.4011 60.7056 60.3491 60.7738H54.5518C52.0381 60.8128 52.0316 64.5607 54.5518 64.6029L54.5487 64.5997Z" fill="white"/>
</svg>
