<svg width="19" height="16" viewBox="0 0 19 16" fill="none" xmlns="http://www.w3.org/2000/svg">
<path d="M16.769 0H1.29C1.12046 0.000131271 0.952613 0.0336537 0.796032 0.0986538C0.639451 0.163654 0.497206 0.258859 0.377418 0.378832C0.257631 0.498805 0.162647 0.641198 0.0978891 0.797879C0.0331316 0.954561 -0.000130985 1.12246 3.87632e-07 1.292V11.624C-0.000130985 11.7935 0.0331316 11.9614 0.0978891 12.1181C0.162647 12.2748 0.257631 12.4172 0.377418 12.5372C0.497206 12.6571 0.639451 12.7523 0.796032 12.8173C0.952613 12.8823 1.12046 12.9159 1.29 12.916H7.09V14.188H5.8C5.62894 14.188 5.46488 14.256 5.34392 14.3769C5.22296 14.4979 5.155 14.6619 5.155 14.833C5.155 15.0041 5.22296 15.1681 5.34392 15.2891C5.46488 15.41 5.62894 15.478 5.8 15.478H12.25C12.4211 15.478 12.5851 15.41 12.7061 15.2891C12.827 15.1681 12.895 15.0041 12.895 14.833C12.895 14.6619 12.827 14.4979 12.7061 14.3769C12.5851 14.256 12.4211 14.188 12.25 14.188H10.96V12.916H16.76C16.9295 12.9159 17.0974 12.8823 17.254 12.8173C17.4106 12.7523 17.5528 12.6571 17.6726 12.5372C17.7924 12.4172 17.8874 12.2748 17.9521 12.1181C18.0169 11.9614 18.0501 11.7935 18.05 11.624V1.292C18.0503 0.951158 17.9157 0.624037 17.6758 0.381997C17.4358 0.139957 17.1098 0.00264003 16.769 0ZM16.769 11.241C16.769 11.3471 16.7269 11.4488 16.6518 11.5238C16.5768 11.5989 16.4751 11.641 16.369 11.641H1.694C1.58791 11.641 1.48617 11.5989 1.41116 11.5238C1.33614 11.4488 1.294 11.3471 1.294 11.241V1.716C1.294 1.60991 1.33614 1.50817 1.41116 1.43316C1.48617 1.35814 1.58791 1.316 1.694 1.316H16.368C16.4741 1.316 16.5758 1.35814 16.6508 1.43316C16.7259 1.50817 16.768 1.60991 16.768 1.716L16.769 11.241Z" fill="white"/>
</svg>
