<svg width="62" height="12" viewBox="0 0 62 12" fill="none" xmlns="http://www.w3.org/2000/svg">
<path d="M2.66993 10.7578C2.23633 10.7578 1.84571 10.6504 1.49805 10.4356C1.14649 10.2207 0.863281 9.93164 0.648438 9.56835C0.4375 9.20507 0.332031 8.79882 0.332031 8.3496V4.54687C0.332031 4.10937 0.439453 3.71093 0.654297 3.35156C0.865235 2.98828 1.14844 2.69921 1.50391 2.48437C1.85938 2.26562 2.24805 2.15625 2.66993 2.15625C3.11133 2.15625 3.50977 2.26171 3.86524 2.47265C4.22071 2.6875 4.50196 2.9746 4.70899 3.33398C4.91993 3.69335 5.02539 4.09765 5.02539 4.54687V5.09765C5.02539 5.1289 5.00586 5.14453 4.9668 5.14453H3.61914C3.58789 5.14453 3.57227 5.1289 3.57227 5.09765V4.64062C3.57227 4.33593 3.48633 4.08398 3.31446 3.88476C3.14258 3.68554 2.92774 3.58593 2.66993 3.58593C2.43946 3.58593 2.23438 3.68164 2.05469 3.87304C1.875 4.06445 1.78516 4.28906 1.78516 4.54687V8.3496C1.78516 8.61132 1.87305 8.83789 2.04883 9.02929C2.22461 9.21679 2.43164 9.31054 2.66993 9.31054C2.92774 9.31054 3.14258 9.21875 3.31446 9.03515C3.48633 8.84765 3.57227 8.61914 3.57227 8.3496V7.75781H2.73438C2.69141 7.75781 2.66993 7.73828 2.66993 7.69921V6.35742C2.66993 6.31835 2.69141 6.29882 2.73438 6.29882H4.97852C5.00977 6.29882 5.02539 6.31835 5.02539 6.35742V8.3496C5.02539 8.79882 4.91993 9.20507 4.70899 9.56835C4.49414 9.93164 4.21094 10.2207 3.85938 10.4356C3.50782 10.6504 3.11133 10.7578 2.66993 10.7578ZM9.80078 10.6407H5.92188C5.89063 10.6407 5.875 10.6211 5.875 10.5821L5.88672 2.33789C5.88672 2.30664 5.90235 2.29101 5.9336 2.29101H9.78907C9.82032 2.29101 9.83594 2.31054 9.83594 2.3496V3.6914C9.83594 3.72265 9.82032 3.73828 9.78907 3.73828H7.32813V5.61328H9.78907C9.82032 5.61328 9.83594 5.6289 9.83594 5.66015L9.84766 7.01953C9.84766 7.05078 9.83203 7.0664 9.80078 7.0664H7.32813V9.16406H9.80078C9.83203 9.16406 9.84766 9.18359 9.84766 9.22265V10.5938C9.84766 10.625 9.83203 10.6407 9.80078 10.6407ZM13.1347 10.7578C12.7089 10.7578 12.3164 10.6485 11.957 10.4297C11.6015 10.211 11.3144 9.91992 11.0957 9.55664C10.8808 9.18945 10.7734 8.7871 10.7734 8.3496L10.7851 4.54687C10.7851 4.10156 10.8925 3.70117 11.1074 3.3457C11.3183 2.98632 11.6035 2.69921 11.9628 2.48437C12.3222 2.26562 12.7128 2.15625 13.1347 2.15625C13.5722 2.15625 13.9648 2.26367 14.3125 2.47851C14.664 2.69335 14.9453 2.98242 15.1562 3.3457C15.371 3.70507 15.4785 4.10546 15.4785 4.54687L15.4902 8.3496C15.4902 8.7871 15.3847 9.1875 15.1738 9.55078C14.9589 9.91796 14.6738 10.211 14.3183 10.4297C13.9628 10.6485 13.5683 10.7578 13.1347 10.7578ZM13.1347 9.31054C13.3769 9.31054 13.5878 9.21289 13.7675 9.01757C13.9472 8.81835 14.0371 8.5957 14.0371 8.3496L14.0253 4.54687C14.0253 4.28125 13.9414 4.05664 13.7734 3.87304C13.6054 3.68945 13.3925 3.59765 13.1347 3.59765C12.8886 3.59765 12.6777 3.6875 12.5019 3.86718C12.3261 4.04687 12.2382 4.27343 12.2382 4.54687V8.3496C12.2382 8.61132 12.3261 8.83789 12.5019 9.02929C12.6777 9.21679 12.8886 9.31054 13.1347 9.31054ZM17.8164 10.6407H16.457C16.4179 10.6407 16.3984 10.6211 16.3984 10.5821L16.4101 2.33789C16.4101 2.30664 16.4257 2.29101 16.457 2.29101H17.8046C17.8359 2.29101 17.8515 2.30664 17.8515 2.33789L17.8632 10.5821C17.8632 10.6211 17.8476 10.6407 17.8164 10.6407ZM20.3242 10.6407H18.9765C18.9375 10.6407 18.9179 10.6211 18.9179 10.5821L18.9414 2.33789C18.9414 2.30664 18.957 2.29101 18.9882 2.29101H21.2968C22.0312 2.29101 22.6113 2.51562 23.0371 2.96484C23.4668 3.41015 23.6816 4.01757 23.6816 4.7871C23.6816 5.3496 23.5703 5.83984 23.3476 6.25781C23.121 6.67187 22.8281 6.99218 22.4687 7.21875C22.1093 7.44531 21.7187 7.55859 21.2968 7.55859H20.3828V10.5821C20.3828 10.6211 20.3632 10.6407 20.3242 10.6407ZM21.2968 3.71484L20.3828 3.72656V6.10546H21.2968C21.5507 6.10546 21.7714 5.98437 21.9589 5.74218C22.1464 5.49609 22.2402 5.17773 22.2402 4.7871C22.2402 4.4746 22.1562 4.21875 21.9882 4.01953C21.8203 3.8164 21.5898 3.71484 21.2968 3.71484ZM25.8085 10.6407H24.4609C24.4218 10.6407 24.4023 10.6211 24.4023 10.5821L24.4257 2.33789C24.4257 2.30664 24.4414 2.29101 24.4726 2.29101H28.3164C28.3554 2.29101 28.375 2.30664 28.375 2.33789V3.6914C28.375 3.72265 28.3593 3.73828 28.3281 3.73828H25.8671V5.60156H28.3281C28.3593 5.60156 28.375 5.62109 28.375 5.66015L28.3867 7.01953C28.3867 7.05078 28.3671 7.0664 28.3281 7.0664H25.8671V10.5821C25.8671 10.6211 25.8476 10.6407 25.8085 10.6407ZM28.5683 10.5821L30.0566 2.33789C30.0644 2.30664 30.0839 2.29101 30.1152 2.29101H31.8554C31.8867 2.29101 31.9062 2.30664 31.914 2.33789L33.3437 10.5821C33.3476 10.6211 33.332 10.6407 33.2968 10.6407H31.9668C31.9277 10.6407 31.9062 10.6211 31.9023 10.5821L31.7734 9.70312H30.1386L30.0097 10.5821C30.0058 10.6211 29.9863 10.6407 29.9511 10.6407H28.6152C28.5839 10.6407 28.5683 10.6211 28.5683 10.5821ZM30.9179 5.05078L30.3789 8.41992H31.5332L31.041 5.05078L30.9707 4.60546L30.9179 5.05078ZM36.3027 10.7578C35.8691 10.7578 35.4726 10.6485 35.1132 10.4297C34.7578 10.211 34.4746 9.91796 34.2636 9.55078C34.0566 9.17968 33.9531 8.76757 33.9531 8.31445L33.9648 4.57031C33.9648 4.125 34.0664 3.72265 34.2695 3.36328C34.4726 3 34.7519 2.70898 35.1074 2.49023C35.4668 2.26757 35.8652 2.15625 36.3027 2.15625C36.748 2.15625 37.1445 2.26367 37.4921 2.47851C37.8437 2.69335 38.123 2.98437 38.33 3.35156C38.541 3.71484 38.6464 4.12109 38.6464 4.57031V5.12109C38.6464 5.15234 38.6308 5.16796 38.5996 5.16796H37.2519C37.2207 5.16796 37.205 5.15234 37.205 5.12109V4.57031C37.205 4.30468 37.1191 4.07617 36.9472 3.88476C36.7753 3.69335 36.5605 3.59765 36.3027 3.59765C36.0175 3.59765 35.7988 3.69531 35.6464 3.89062C35.4941 4.08593 35.4179 4.3125 35.4179 4.57031V8.31445C35.4179 8.60742 35.5039 8.84765 35.6757 9.03515C35.8476 9.21875 36.0566 9.31054 36.3027 9.31054C36.5605 9.31054 36.7753 9.20898 36.9472 9.00585C37.1191 8.79882 37.205 8.56835 37.205 8.31445V7.75781C37.205 7.72656 37.2207 7.71093 37.2519 7.71093H38.6113C38.6425 7.71093 38.6582 7.72656 38.6582 7.75781V8.31445C38.6582 8.76367 38.5527 9.17382 38.3418 9.54492C38.1269 9.9121 37.8437 10.2071 37.4921 10.4297C37.1406 10.6485 36.7441 10.7578 36.3027 10.7578ZM42.0918 10.6407H40.7382C40.7031 10.6407 40.6855 10.6211 40.6855 10.5821V3.73828H39.1269C39.0878 3.73828 39.0683 3.71875 39.0683 3.67968L39.08 2.33789C39.08 2.30664 39.0957 2.29101 39.1269 2.29101H43.6855C43.7285 2.29101 43.75 2.30664 43.75 2.33789V3.67968C43.75 3.71875 43.7343 3.73828 43.7031 3.73828H42.1269L42.1386 10.5821C42.1386 10.6211 42.123 10.6407 42.0918 10.6407ZM46.375 10.7578C45.9492 10.7578 45.5566 10.6485 45.1972 10.4297C44.8418 10.211 44.5566 9.91992 44.3418 9.55664C44.1308 9.18945 44.0253 8.7871 44.0253 8.3496V7.79882C44.0253 7.75585 44.0449 7.73437 44.0839 7.73437H45.4316C45.4628 7.73437 45.4785 7.75585 45.4785 7.79882V8.3496C45.4785 8.61132 45.5664 8.83789 45.7421 9.02929C45.9179 9.21679 46.1289 9.31054 46.375 9.31054C46.625 9.31054 46.8378 9.21484 47.0136 9.02343C47.1894 8.82812 47.2773 8.60351 47.2773 8.3496C47.2773 8.05664 47.0859 7.80078 46.7031 7.58203C46.6406 7.54296 46.5585 7.49609 46.457 7.4414C46.3593 7.38281 46.2421 7.3164 46.1054 7.24218C45.9687 7.16796 45.8359 7.0957 45.707 7.02539C45.5781 6.95117 45.4531 6.88085 45.332 6.81445C44.8945 6.55664 44.5683 6.23437 44.3535 5.84765C44.1425 5.45703 44.0371 5.01953 44.0371 4.53515C44.0371 4.08984 44.1464 3.6875 44.3652 3.32812C44.5839 2.97265 44.8691 2.6914 45.2207 2.48437C45.5761 2.27343 45.9609 2.16796 46.375 2.16796C46.8007 2.16796 47.1914 2.27343 47.5468 2.48437C47.9023 2.69921 48.1855 2.98437 48.3964 3.33984C48.6113 3.69531 48.7187 4.09375 48.7187 4.53515V5.51953C48.7187 5.55078 48.7031 5.5664 48.6718 5.5664H47.3242C47.2929 5.5664 47.2773 5.55078 47.2773 5.51953L47.2656 4.53515C47.2656 4.2539 47.1777 4.02539 47.0019 3.8496C46.8261 3.67382 46.6171 3.58593 46.375 3.58593C46.1289 3.58593 45.9179 3.67968 45.7421 3.86718C45.5664 4.05468 45.4785 4.27734 45.4785 4.53515C45.4785 4.79687 45.5332 5.01562 45.6425 5.1914C45.7558 5.36718 45.9609 5.53515 46.2578 5.69531C46.289 5.71093 46.3613 5.75 46.4746 5.8125C46.5878 5.875 46.7128 5.94531 46.8496 6.02343C46.9902 6.09765 47.1171 6.16601 47.2304 6.22851C47.3437 6.2871 47.4121 6.32226 47.4355 6.33398C47.8339 6.55664 48.1484 6.83007 48.3789 7.15429C48.6132 7.47851 48.7304 7.87695 48.7304 8.3496C48.7304 8.80664 48.625 9.21679 48.414 9.58007C48.1992 9.94335 47.914 10.2305 47.5585 10.4414C47.2031 10.6524 46.8085 10.7578 46.375 10.7578Z" fill="white"/>
<mask id="mask0_149_31" style="mask-type:luminance" maskUnits="userSpaceOnUse" x="52" y="0" width="10" height="12">
<path d="M61.998 0H52.3594V11.6392H61.998V0Z" fill="white"/>
</mask>
<g mask="url(#mask0_149_31)">
<path d="M53.2092 10.4563C53.1506 10.1985 52.8576 9.88795 52.5881 9.81177L52.3596 9.74146V8.89771C52.3596 7.94263 52.3303 7.98365 52.9162 8.14185C53.9064 8.40552 54.6682 9.19068 54.8732 10.1575C54.9787 10.6731 55.0432 10.638 54.0939 10.638H53.2502L53.2092 10.4563Z" fill="#47AD6C"/>
<path d="M56.7305 10.2774C56.4961 8.13282 54.8438 6.48634 52.7169 6.26954L52.3594 6.22852V5.39062V4.54688H52.5879C53.2793 4.54688 54.3575 4.85157 55.1485 5.27344C55.7754 5.60743 56.2032 5.9414 56.754 6.51562C57.6387 7.44727 58.1485 8.46094 58.3653 9.72657C58.4122 10.0137 58.4532 10.336 58.4532 10.4415V10.6407H57.6094H56.7715L56.7305 10.2774Z" fill="#47AD6C" fill-opacity="0.5"/>
<path d="M60.2696 10.2344C60.2696 9.38477 59.9356 8.08984 59.4727 7.16992C58.7344 5.69336 57.4454 4.375 55.9981 3.61328C54.9844 3.08594 53.6836 2.72852 52.7637 2.72852H52.3594V1.86133V1L53.0215 1.04102C57.6856 1.31641 61.6817 5.3125 61.9571 9.98242L61.9981 10.6387H61.1368H60.2696V10.2344Z" fill="#47AD6C" fill-opacity="0.3"/>
</g>
</svg>
