<svg width="62" height="12" viewBox="0 0 62 12" fill="none" xmlns="http://www.w3.org/2000/svg">
<path d="M2.67188 10.7563C2.23828 10.7563 1.84766 10.6489 1.5 10.4341C1.14844 10.2192 0.865234 9.93018 0.650391 9.56689C0.439453 9.20361 0.333984 8.79736 0.333984 8.34814V4.54541C0.333984 4.10791 0.441406 3.70947 0.65625 3.3501C0.867188 2.98682 1.15039 2.69775 1.50586 2.48291C1.86133 2.26416 2.25 2.15479 2.67188 2.15479C3.11328 2.15479 3.51172 2.26025 3.86719 2.47119C4.22266 2.68604 4.50391 2.97314 4.71094 3.33252C4.92188 3.69189 5.02734 4.09619 5.02734 4.54541V5.09619C5.02734 5.12744 5.00781 5.14307 4.96875 5.14307H3.62109C3.58984 5.14307 3.57422 5.12744 3.57422 5.09619V4.63916C3.57422 4.33447 3.48828 4.08252 3.31641 3.8833C3.14453 3.68408 2.92969 3.58447 2.67188 3.58447C2.44141 3.58447 2.23633 3.68018 2.05664 3.87158C1.87695 4.06299 1.78711 4.2876 1.78711 4.54541V8.34814C1.78711 8.60986 1.875 8.83643 2.05078 9.02783C2.22656 9.21533 2.43359 9.30908 2.67188 9.30908C2.92969 9.30908 3.14453 9.21729 3.31641 9.03369C3.48828 8.84619 3.57422 8.61768 3.57422 8.34814V7.75635H2.73633C2.69336 7.75635 2.67188 7.73682 2.67188 7.69775V6.35596C2.67188 6.31689 2.69336 6.29736 2.73633 6.29736H4.98047C5.01172 6.29736 5.02734 6.31689 5.02734 6.35596V8.34814C5.02734 8.79736 4.92188 9.20361 4.71094 9.56689C4.49609 9.93018 4.21289 10.2192 3.86133 10.4341C3.50977 10.6489 3.11328 10.7563 2.67188 10.7563ZM9.80273 10.6392H5.92383C5.89258 10.6392 5.87695 10.6196 5.87695 10.5806L5.88867 2.33643C5.88867 2.30518 5.9043 2.28955 5.93555 2.28955H9.79102C9.82227 2.28955 9.83789 2.30908 9.83789 2.34814V3.68994C9.83789 3.72119 9.82227 3.73682 9.79102 3.73682H7.33008V5.61182H9.79102C9.82227 5.61182 9.83789 5.62744 9.83789 5.65869L9.84961 7.01807C9.84961 7.04932 9.83398 7.06494 9.80273 7.06494H7.33008V9.1626H9.80273C9.83398 9.1626 9.84961 9.18213 9.84961 9.22119V10.5923C9.84961 10.6235 9.83398 10.6392 9.80273 10.6392ZM13.1367 10.7563C12.7109 10.7563 12.3184 10.647 11.959 10.4282C11.6035 10.2095 11.3164 9.91846 11.0977 9.55518C10.8828 9.18799 10.7754 8.78564 10.7754 8.34814L10.7871 4.54541C10.7871 4.1001 10.8945 3.69971 11.1094 3.34424C11.3203 2.98486 11.6055 2.69775 11.9648 2.48291C12.3242 2.26416 12.7148 2.15479 13.1367 2.15479C13.5742 2.15479 13.9668 2.26221 14.3145 2.47705C14.666 2.69189 14.9473 2.98096 15.1582 3.34424C15.373 3.70361 15.4805 4.104 15.4805 4.54541L15.4922 8.34814C15.4922 8.78564 15.3867 9.18604 15.1758 9.54932C14.9609 9.9165 14.6758 10.2095 14.3203 10.4282C13.9648 10.647 13.5703 10.7563 13.1367 10.7563ZM13.1367 9.30908C13.3789 9.30908 13.5898 9.21143 13.7695 9.01611C13.9492 8.81689 14.0391 8.59424 14.0391 8.34814L14.0273 4.54541C14.0273 4.27979 13.9434 4.05518 13.7754 3.87158C13.6074 3.68799 13.3945 3.59619 13.1367 3.59619C12.8906 3.59619 12.6797 3.68604 12.5039 3.86572C12.3281 4.04541 12.2402 4.27197 12.2402 4.54541V8.34814C12.2402 8.60986 12.3281 8.83643 12.5039 9.02783C12.6797 9.21533 12.8906 9.30908 13.1367 9.30908ZM17.8184 10.6392H16.459C16.4199 10.6392 16.4004 10.6196 16.4004 10.5806L16.4121 2.33643C16.4121 2.30518 16.4277 2.28955 16.459 2.28955H17.8066C17.8379 2.28955 17.8535 2.30518 17.8535 2.33643L17.8652 10.5806C17.8652 10.6196 17.8496 10.6392 17.8184 10.6392ZM20.3262 10.6392H18.9785C18.9395 10.6392 18.9199 10.6196 18.9199 10.5806L18.9434 2.33643C18.9434 2.30518 18.959 2.28955 18.9902 2.28955H21.2988C22.0332 2.28955 22.6133 2.51416 23.0391 2.96338C23.4688 3.40869 23.6836 4.01611 23.6836 4.78564C23.6836 5.34814 23.5723 5.83838 23.3496 6.25635C23.123 6.67041 22.8301 6.99072 22.4707 7.21729C22.1113 7.44385 21.7207 7.55713 21.2988 7.55713H20.3848V10.5806C20.3848 10.6196 20.3652 10.6392 20.3262 10.6392ZM21.2988 3.71338L20.3848 3.7251V6.104H21.2988C21.5527 6.104 21.7734 5.98291 21.9609 5.74072C22.1484 5.49463 22.2422 5.17627 22.2422 4.78564C22.2422 4.47314 22.1582 4.21729 21.9902 4.01807C21.8223 3.81494 21.5918 3.71338 21.2988 3.71338ZM25.8105 10.6392H24.4629C24.4238 10.6392 24.4043 10.6196 24.4043 10.5806L24.4277 2.33643C24.4277 2.30518 24.4434 2.28955 24.4746 2.28955H28.3184C28.3574 2.28955 28.377 2.30518 28.377 2.33643V3.68994C28.377 3.72119 28.3613 3.73682 28.3301 3.73682H25.8691V5.6001H28.3301C28.3613 5.6001 28.377 5.61963 28.377 5.65869L28.3887 7.01807C28.3887 7.04932 28.3691 7.06494 28.3301 7.06494H25.8691V10.5806C25.8691 10.6196 25.8496 10.6392 25.8105 10.6392ZM28.5703 10.5806L30.0586 2.33643C30.0664 2.30518 30.0859 2.28955 30.1172 2.28955H31.8574C31.8887 2.28955 31.9082 2.30518 31.916 2.33643L33.3457 10.5806C33.3496 10.6196 33.334 10.6392 33.2988 10.6392H31.9688C31.9297 10.6392 31.9082 10.6196 31.9043 10.5806L31.7754 9.70166H30.1406L30.0117 10.5806C30.0078 10.6196 29.9883 10.6392 29.9531 10.6392H28.6172C28.5859 10.6392 28.5703 10.6196 28.5703 10.5806ZM30.9199 5.04932L30.3809 8.41846H31.5352L31.043 5.04932L30.9727 4.604L30.9199 5.04932ZM36.3047 10.7563C35.8711 10.7563 35.4746 10.647 35.1152 10.4282C34.7598 10.2095 34.4766 9.9165 34.2656 9.54932C34.0586 9.17822 33.9551 8.76611 33.9551 8.31299L33.9668 4.56885C33.9668 4.12354 34.0684 3.72119 34.2715 3.36182C34.4746 2.99854 34.7539 2.70752 35.1094 2.48877C35.4688 2.26611 35.8672 2.15479 36.3047 2.15479C36.75 2.15479 37.1465 2.26221 37.4941 2.47705C37.8457 2.69189 38.125 2.98291 38.332 3.3501C38.543 3.71338 38.6484 4.11963 38.6484 4.56885V5.11963C38.6484 5.15088 38.6328 5.1665 38.6016 5.1665H37.2539C37.2227 5.1665 37.207 5.15088 37.207 5.11963V4.56885C37.207 4.30322 37.1211 4.07471 36.9492 3.8833C36.7773 3.69189 36.5625 3.59619 36.3047 3.59619C36.0195 3.59619 35.8008 3.69385 35.6484 3.88916C35.4961 4.08447 35.4199 4.31104 35.4199 4.56885V8.31299C35.4199 8.60596 35.5059 8.84619 35.6777 9.03369C35.8496 9.21729 36.0586 9.30908 36.3047 9.30908C36.5625 9.30908 36.7773 9.20752 36.9492 9.00439C37.1211 8.79736 37.207 8.56689 37.207 8.31299V7.75635C37.207 7.7251 37.2227 7.70947 37.2539 7.70947H38.6133C38.6445 7.70947 38.6602 7.7251 38.6602 7.75635V8.31299C38.6602 8.76221 38.5547 9.17236 38.3438 9.54346C38.1289 9.91064 37.8457 10.2056 37.4941 10.4282C37.1426 10.647 36.7461 10.7563 36.3047 10.7563ZM42.0938 10.6392H40.7402C40.7051 10.6392 40.6875 10.6196 40.6875 10.5806V3.73682H39.1289C39.0898 3.73682 39.0703 3.71729 39.0703 3.67822L39.082 2.33643C39.082 2.30518 39.0977 2.28955 39.1289 2.28955H43.6875C43.7305 2.28955 43.752 2.30518 43.752 2.33643V3.67822C43.752 3.71729 43.7363 3.73682 43.7051 3.73682H42.1289L42.1406 10.5806C42.1406 10.6196 42.125 10.6392 42.0938 10.6392ZM46.377 10.7563C45.9512 10.7563 45.5586 10.647 45.1992 10.4282C44.8438 10.2095 44.5586 9.91846 44.3438 9.55518C44.1328 9.18799 44.0273 8.78564 44.0273 8.34814V7.79736C44.0273 7.75439 44.0469 7.73291 44.0859 7.73291H45.4336C45.4648 7.73291 45.4805 7.75439 45.4805 7.79736V8.34814C45.4805 8.60986 45.5684 8.83643 45.7441 9.02783C45.9199 9.21533 46.1309 9.30908 46.377 9.30908C46.627 9.30908 46.8398 9.21338 47.0156 9.02197C47.1914 8.82666 47.2793 8.60205 47.2793 8.34814C47.2793 8.05518 47.0879 7.79932 46.7051 7.58057C46.6426 7.5415 46.5605 7.49463 46.459 7.43994C46.3613 7.38135 46.2441 7.31494 46.1074 7.24072C45.9707 7.1665 45.8379 7.09424 45.709 7.02393C45.5801 6.94971 45.4551 6.87939 45.334 6.81299C44.8965 6.55518 44.5703 6.23291 44.3555 5.84619C44.1445 5.45557 44.0391 5.01807 44.0391 4.53369C44.0391 4.08838 44.1484 3.68604 44.3672 3.32666C44.5859 2.97119 44.8711 2.68994 45.2227 2.48291C45.5781 2.27197 45.9629 2.1665 46.377 2.1665C46.8027 2.1665 47.1934 2.27197 47.5488 2.48291C47.9043 2.69775 48.1875 2.98291 48.3984 3.33838C48.6133 3.69385 48.7207 4.09229 48.7207 4.53369V5.51807C48.7207 5.54932 48.7051 5.56494 48.6738 5.56494H47.3262C47.2949 5.56494 47.2793 5.54932 47.2793 5.51807L47.2676 4.53369C47.2676 4.25244 47.1797 4.02393 47.0039 3.84814C46.8281 3.67236 46.6191 3.58447 46.377 3.58447C46.1309 3.58447 45.9199 3.67822 45.7441 3.86572C45.5684 4.05322 45.4805 4.27588 45.4805 4.53369C45.4805 4.79541 45.5352 5.01416 45.6445 5.18994C45.7578 5.36572 45.9629 5.53369 46.2598 5.69385C46.291 5.70947 46.3633 5.74854 46.4766 5.81104C46.5898 5.87354 46.7148 5.94385 46.8516 6.02197C46.9922 6.09619 47.1191 6.16455 47.2324 6.22705C47.3457 6.28564 47.4141 6.3208 47.4375 6.33252C47.8359 6.55518 48.1504 6.82861 48.3809 7.15283C48.6152 7.47705 48.7324 7.87549 48.7324 8.34814C48.7324 8.80518 48.627 9.21533 48.416 9.57861C48.2012 9.94189 47.916 10.229 47.5605 10.4399C47.2051 10.6509 46.8105 10.7563 46.377 10.7563Z" fill="black"/>
<g clip-path="url(#clip0_41_234)">
<path d="M53.2112 10.457C53.1526 10.1992 52.8596 9.88868 52.5901 9.8125L52.3616 9.74219V8.89844C52.3616 7.94336 52.3323 7.98438 52.9182 8.14258C53.9084 8.40625 54.6702 9.19141 54.8752 10.1582C54.9807 10.6738 55.0452 10.6387 54.0959 10.6387H53.2522L53.2112 10.457Z" fill="#47AD6C"/>
<path d="M56.7324 10.2754C56.498 8.13086 54.8457 6.48438 52.7188 6.26758L52.3613 6.22656V5.38867V4.54492H52.5898C53.2812 4.54492 54.3594 4.84961 55.1504 5.27148C55.7773 5.60547 56.2051 5.93945 56.7559 6.51367C57.6406 7.44531 58.1504 8.45898 58.3672 9.72461C58.4141 10.0117 58.4551 10.334 58.4551 10.4395V10.6387H57.6113H56.7734L56.7324 10.2754Z" fill="#47AD6C" fill-opacity="0.5"/>
<path d="M60.2715 10.2344C60.2715 9.38477 59.9375 8.08984 59.4746 7.16992C58.7363 5.69336 57.4473 4.375 56 3.61328C54.9863 3.08594 53.6855 2.72852 52.7656 2.72852H52.3613V1.86133V1L53.0234 1.04102C57.6875 1.31641 61.6836 5.3125 61.959 9.98242L62 10.6387H61.1387H60.2715V10.2344Z" fill="#47AD6C" fill-opacity="0.3"/>
</g>
<defs>
<clipPath id="clip0_41_234">
<rect width="9.63867" height="11.6392" fill="white" transform="translate(52.3613)"/>
</clipPath>
</defs>
</svg>
